<svg xmlns="http://www.w3.org/2000/svg" viewBox="0 0 583.22 733.08"><defs><style>.cls-1{fill:#fff;}</style></defs><title>diverse</title><g id="glass"><path class="cls-1" d="M456.15,238.68c22.63,0,45.25-.05,67.88.06,9.1,0,7.71-6.44,7.94-12.08.24-6-.7-10.58-8.56-10.3-11.12.4-22.26.1-33.4.1s-22.27.25-33.4-.09c-7.5-.22-8.09,4.36-7.71,9.83C449.26,231.48,446.72,238.67,456.15,238.68Z"/><path class="cls-1" d="M583,493.85c0-75.18-.25-150.36.26-225.54.08-11.41-3.83-14-14.27-13.92-52.23.4-104.47.16-156.7.21-13.32,0-14.33,1-14.33,14q0,225,0,450c0,13.28.89,14.2,14.13,14.21,52.63,0,105.25-.24,157.88.25,10.66.1,13.27-3.51,13.22-13.69C582.81,644.21,583,569,583,493.85ZM514.45,687h-48a7.5,7.5,0,0,1,0-15h48a7.5,7.5,0,0,1,0,15Zm0-347H498v16.5a7.5,7.5,0,0,1-15,0V340h-16.5a7.5,7.5,0,0,1,0-15H483V308.5a7.5,7.5,0,0,1,15,0V325h16.5a7.5,7.5,0,0,1,0,15Z"/><path class="cls-1" d="M23.53,443.07c.39,19-.22,38,.32,57,.19,6.75,0,13.52,0,20.29,0,2.36,0,4.72,0,7.08,0,1.35.6,2,1.95,1.95.54,0,1.07,0,1.61,0,30.43.17,60.86-.23,91.29-.31,9.4,0,18.79,0,28.19,0,3.89,0,3.91,0,3.89-3.87-.15-30.7.26-61.41-.28-92.11-.17-10,0-20,0-29.95h0q0-16.83,0-33.66c0-2.31-.29-2.46-2.53-2.81-2.91-.46-5.79.08-8.68.08-37.68,0-75.36-.2-113,.28-.38,0-.75,0-1.13,0-1.26-.05-1.92.5-1.87,1.81,0,.59,0,1.18,0,1.77C23.44,394.77,23,418.92,23.53,443.07Z"/><path class="cls-1" d="M3.05,688.54a12.64,12.64,0,0,0,10.59,5.13c20.23-.17,40.46.12,60.7-.26,21.89-.42,43.79.2,65.68-.35,7.67-.19,15.35,0,23,0,5.35,0,8.78-2.86,11-7.5a11.63,11.63,0,0,0,.65-5.07V596.26c-.25-27,0-56.77-.24-86.5-.29-41.49-.07-83-.42-124.46-.05-5.1,0-10.2,0-15.3,0-2.46-.47-4.91-.2-7.39a50.78,50.78,0,0,0-.45-10.74,4.54,4.54,0,0,0-.59-1.65,12.24,12.24,0,0,0-10.32-6.67c-4.66-.35-9.31-.18-14-.07-12.44.3-24.89.1-37.34.28-21.15.31-42.3.1-63.45.11q-17.55,0-35.1,0c-5.76,0-9.53,2.95-12,7.91-.83,1.68-.51,3.48-.5,5.23.17,66.66-.32,133.33.28,200,.28,31.18-.25,62.36.32,93.54.18,9.87,0,19.75,0,29.63C.73,683.17,1.15,686.08,3.05,688.54ZM51.56,566.75c2.49,0,3.52,1,3.55,3.55,0,3.86,0,7.73,0,11.59,0,5-.93,6-5.87,6C42.13,588,35,588,27.87,588h-.65c-3.89-.08-4.92-1.12-4.94-5,0-4.13,0-8.26,0-12.4,0-3,.77-3.78,3.85-3.8,4.18,0,8.37,0,12.55,0h0C43,566.74,47.27,566.72,51.56,566.75ZM22.31,609.64c0-2.58,1.26-3.85,3.86-3.88,4.18,0,8.36,0,12.54,0h0c4.13,0,8.26,0,12.39,0,2.84,0,4,1.15,4,4q.06,6.51,0,13c0,2.58-1.12,3.61-3.72,3.88-5,.51-9.95-.2-14.92,0a79.94,79.94,0,0,0-8.19.26,6.94,6.94,0,0,1-2.72-.14,3.85,3.85,0,0,1-3.27-4.12Q22.27,616.16,22.31,609.64Zm32.81,52.78a3.17,3.17,0,0,1-3.5,3.52q-12.87.06-25.76,0a3.24,3.24,0,0,1-3.47-3.29c-.11-4.82-.12-9.66,0-14.49.05-2.17,1.55-3.4,3.89-3.43,4.29,0,8.59,0,12.88,0h0c4.14,0,8.27,0,12.4,0,2.48,0,3.55,1,3.57,3.53Q55.18,655.33,55.12,662.42ZM71.27,570.2c0-2.56.66-3.2,3.14-3.53a43.8,43.8,0,0,1,6.58,0c5.46.09,10.93,0,16.39-.09,1.07,0,2.15-.11,3.22,0a3.28,3.28,0,0,1,3.45,3.47c.07,4.61.08,9.22,0,13.83-.05,2.41-1.6,3.83-4.06,3.86-4.13.05-8.26,0-12.39,0v0c-4,0-7.94,0-11.91,0-3.4,0-4.42-1.06-4.42-4.46C71.25,578.89,71.24,574.54,71.27,570.2Zm0,38.68c0-2,1.16-3.1,3.31-3.12,4.4,0,8.8,0,13.2,0h0c4.24,0,8.48,0,12.72,0,2.27,0,3.5,1.17,3.52,3.46.06,4.61,0,9.23,0,13.84,0,2-.79,2.82-2.76,3.15a28.37,28.37,0,0,1-4.31.44c-6.39,0-12.78,0-19.16,0a19.67,19.67,0,0,1-3.84-.36,2.9,2.9,0,0,1-2.68-3.1C71.26,618.43,71.25,613.66,71.31,608.88Zm32.77,53.84a3.24,3.24,0,0,1-3.22,3.19q-13.11.08-26.24,0c-2.05,0-3.25-1.57-3.28-4q-.07-6.35-.06-12.7c0-3.41,1.15-4.51,4.56-4.51H87.91v0c4.19,0,8.37,0,12.56,0,2.28,0,3.57,1.13,3.61,3.39C104.16,653,104.14,657.85,104.08,662.72Zm15.83-92.46c0-2.28,1.12-3.44,3.39-3.72a18.82,18.82,0,0,1,2.25-.1c7.51-.1,15,.12,22.52-.19,3.61-.15,4.63.87,4.66,4.5,0,4.13,0,8.26,0,12.39,0,3.13-.79,4.07-4,4.16-4.19.11-8.37,0-12.56,0v0c-4,0-7.94,0-11.91,0-3.23,0-4.35-1.1-4.39-4.38C119.86,578.74,119.87,574.5,119.91,570.26Zm.32,38.93c0-2.56,1-3.45,3.56-3.46,4.23,0,8.47,0,12.7,0s8.47,0,12.71,0c2.67,0,3.33.82,3.57,3.43.43,4.56-.2,9.09-.06,13.64.08,2.36-.81,3.09-3.19,3.26-8.51.6-17,.17-25.55.25-2.63,0-3.7-1.09-3.73-3.76C120.18,618.09,120.19,613.64,120.23,609.19Zm32.83,51.92c0,3.11-.87,4.09-4,4.62a11.58,11.58,0,0,1-2.56.19c-6.95-.42-13.91.12-20.87,0a15.34,15.34,0,0,1-1.92-.08c-2.25-.36-3.12-1.43-3.24-3.64a108.31,108.31,0,0,1,0-14.3c.2-2.62.66-3.22,3.27-3.23,4.34,0,8.69,0,13,0s8.58,0,12.87,0c2.19,0,2.73.44,3.18,2.58a10.32,10.32,0,0,1,.19,2.08C153.06,653.27,153.08,657.19,153.06,661.11ZM21.89,357.92c2.22.09,4.49-.19,6.74-.22,30.32-.41,60.64-.21,91-.37,6.64,0,13.28.23,19.93-.18a108.6,108.6,0,0,1,11.41.09c6.48.28,9.1,4.27,9.19,10.31.1,7.08,0,14.17,0,21.25,0,18.14-.19,36.29.06,54.42.41,28.5.1,57,.25,85.49a9.64,9.64,0,0,1-1.05,5.12,7.42,7.42,0,0,1-6,4.09c-.75.06-1.5.15-2.25.17-24.36.41-48.72.1-73.08.41-18,.22-35.95.08-53.93.23a10.22,10.22,0,0,1-6.74-2.17,9.08,9.08,0,0,1-3.21-7.41q0-20.44,0-40.89V447.52h0c0-27,.06-54.1-.06-81.15C14.13,362,17.5,357.73,21.89,357.92Z"/><path class="cls-1" d="M331.53,284.53H229.9c-1.93,0-1.94,0-2-2a129.61,129.61,0,0,0-17.37-62.45A338.53,338.53,0,0,0,188,186a119.26,119.26,0,0,1-20.85-44.45A115.57,115.57,0,0,1,203.7,28.66,115.38,115.38,0,0,1,347.92,22.3a115.73,115.73,0,0,1,37.53,140.21,132.72,132.72,0,0,1-13.84,23.37c-9.56,13.44-19.15,26.88-26.51,41.72a120.64,120.64,0,0,0-12,38.55c-.71,5.66-1,11.37-1.44,17.06C331.63,283.56,331.59,283.91,331.53,284.53Z"/><path class="cls-1" d="M331.47,343.37c-1.45,17.48-9,31.42-23.76,40.67-18.21,11.42-37.12,11.51-55.43.26-15-9.22-22.66-23.27-24.19-40.93Z"/><path class="cls-1" d="M279.73,309.16H230.08c-2,0-2,0-2-2,0-3.86,0-7.73,0-11.59,0-1.27.43-1.6,1.65-1.6q50.1,0,100.21,0c1.38,0,1.68.48,1.66,1.75-.07,3.86-.09,7.72,0,11.58,0,1.48-.46,1.84-1.88,1.84C313,309.14,296.39,309.16,279.73,309.16Z"/><path class="cls-1" d="M279.76,333.75H230.11c-2,0-2,0-2-2.06,0-3.81,0-7.62,0-11.43,0-1.25.4-1.61,1.64-1.61q50.1,0,100.19,0c1.35,0,1.71.42,1.69,1.72-.08,3.86-.09,7.72,0,11.58,0,1.48-.43,1.85-1.87,1.84Q304.73,333.71,279.76,333.75Z"/></g></svg>