<svg xmlns="http://www.w3.org/2000/svg" viewBox="0 0 249.07 792.36"><defs><style>.cls-1{fill:#fff;}</style></defs><title>glas</title><g id="glass"><path class="cls-1" d="M235.76,354.89c-7.75-34.47-24.19-65.29-39.7-96.55a293,293,0,0,1-25.31-74.55C161.46,135.93,159.3,87.6,159.41,39c0-7.13.28-14.3-.28-21.4-1-13.25-3.84-16.31-16.85-17.15C131.62-.2,120.87,0,110.17.26,90,.85,86.67,4,86.4,24.41,86,53,87.18,81.54,85.94,110c-1.41,32.7-4,65.26-13.61,97.1-8.71,28.92-21.62,55.78-35.16,82.48C14.59,334.13,2.11,381.54.76,431.19-.72,485.38.42,539.64.42,593.87H.16q0,82.43,0,164.84c0,6.41.08,12.86.69,19.23.77,8.18,5.58,13,13.8,13.75,5.67.54,11.39.69,17.1.67,47.68-.1,95.34-2.31,143.07-.33,19.12.8,38.39-2.21,57.61-3.27,10.19-.56,16-5.24,16.28-15.76.13-4.28.34-8.56.34-12.84q-.12-163.75-.21-327.53C248.88,405.91,241.53,380.57,235.76,354.89Zm-29,407.4c-4.76,3.81-7.44-1.57-9.62-4.87-8.06-12.2-19.12-20.46-31.66-27.9-27.14-16.1-75-11.65-101.23,14.25-6.08,6-11.83,12.35-18,18.22-2.85,2.69-5.58,6.93-12.26,3.22,18.18-31.27,43.1-51.15,80.2-54.2,28.23-2.31,53.54,3.66,75.45,22.43A82.4,82.4,0,0,1,205.05,751C207.35,754.48,210.93,759,206.76,762.29Z"/></g></svg>