<?xml version="1.0" encoding="UTF-8"?><!DOCTYPE svg PUBLIC "-//W3C//DTD SVG 1.1//EN" "http://www.w3.org/Graphics/SVG/1.1/DTD/svg11.dtd"><svg xmlns="http://www.w3.org/2000/svg"><symbol id="arrow-right" viewBox="0 0 8 13"><path d="M.59 11.34l4.58-4.59L.59 2.16 2 .75l6 6-6 6z" fill-rule="evenodd"/></symbol><symbol id="icon-bookmark" viewBox="0 0 14 18"><path fill="#EA792B" d="M12 0H2C.9 0 .01.9.01 2L0 18l7-3 7 3V2c0-1.1-.9-2-2-2zm0 15l-5-2.18L2 15V2h10v13z"/></symbol><symbol id="icon-briefcase" viewBox="0 0 18 17"><path fill="#2B9DE3" d="M15.667 4h-3.334V2.333A1.66 1.66 0 0 0 10.667.667H7.333a1.66 1.66 0 0 0-1.666 1.666V4H2.333C1.408 4 .675 4.742.675 5.667l-.008 9.166A1.66 1.66 0 0 0 2.333 16.5h13.334a1.66 1.66 0 0 0 1.666-1.667V5.667A1.66 1.66 0 0 0 15.667 4zm-5 0H7.333V2.333h3.334V4zm5 10.833H2.333V5.667h13.334v9.166z"/></symbol><symbol id="icon-close" viewBox="0 0 14 14"><title/><path d="M14 1.4L12.6 0 7 5.6 1.4 0 0 1.4 5.6 7 0 12.6 1.4 14 7 8.4l5.6 5.6 1.4-1.4L8.4 7 14 1.4z" fill-rule="evenodd"/></symbol><symbol id="icon-danish" viewBox="0 0 512 512"><g fill="none"><circle cx="256" cy="256" r="256" fill="#F0F0F0"/><path fill="#D80027" d="M200.349 222.609h309.484C493.47 97.002 386.067 0 256 0a256.902 256.902 0 0 0-55.652 6.085v216.524h.001zm-66.784-.001V31.127C63.272 69.481 12.95 139.832 2.167 222.609h131.398v-.001zm-.001 66.783H2.167c10.783 82.777 61.105 153.128 131.398 191.481l-.001-191.481zm66.784.001v216.523A256.902 256.902 0 0 0 256 512c130.067 0 237.47-97.002 253.833-222.609H200.348v.001z"/></g></symbol><symbol id="icon-english" viewBox="0 0 16 16"><g fill="none" fill-rule="evenodd"><path d="M0 0h16v16H0z"/><path fill="#F0F0F0" d="M16 8a7.98 7.98 0 0 1-1.348 4.445 7.98 7.98 0 0 1-3.59 2.946 7.98 7.98 0 0 1-4.623.455 7.98 7.98 0 0 1-4.096-2.19 7.98 7.98 0 0 1-2.19-4.095A7.98 7.98 0 0 1 .61 4.939a7.98 7.98 0 0 1 2.946-3.59A7.98 7.98 0 0 1 8 0a7.98 7.98 0 0 1 4.445 1.348 7.98 7.98 0 0 1 2.946 3.59A7.98 7.98 0 0 1 16 8z"/><path fill="#0052B4" d="M1.654 3.13A7.97 7.97 0 0 0 .276 5.912h4.161L1.654 3.13zm14.07 2.783a7.971 7.971 0 0 0-1.378-2.784l-2.783 2.784h4.161zM.276 10.087a7.972 7.972 0 0 0 1.378 2.784l2.783-2.784H.276zM12.87 1.654A7.971 7.971 0 0 0 10.087.276v4.161l2.784-2.783zM3.129 14.346a7.972 7.972 0 0 0 2.784 1.378v-4.161L3.13 14.346zM5.913.276a7.972 7.972 0 0 0-2.784 1.378l2.784 2.783V.276zm4.174 15.448a7.972 7.972 0 0 0 2.784-1.378l-2.784-2.783v4.161zm1.476-5.637l2.783 2.784a7.971 7.971 0 0 0 1.378-2.784h-4.161z"/><path fill="#D80027" d="M15.932 6.957H9.044V.067a8.08 8.08 0 0 0-2.087 0v6.89H.067a8.08 8.08 0 0 0 0 2.086h6.89v6.89a8.08 8.08 0 0 0 2.086 0v-6.89h6.89a8.08 8.08 0 0 0 0-2.086z"/><path fill="#D80027" d="M10.087 10.087l3.57 3.57a8.02 8.02 0 0 0 .47-.514l-3.056-3.056h-.984zm-4.174 0l-3.57 3.57c.164.164.336.32.514.47l3.056-3.056v-.984zm0-4.174l-3.57-3.57a8.02 8.02 0 0 0-.47.514l3.056 3.056h.984zm4.174 0l3.57-3.57a8.01 8.01 0 0 0-.514-.47l-3.056 3.056v.984z"/></g></symbol><symbol id="icon-external" viewBox="0 0 18 18"><g fill="none" fill-rule="evenodd"><path d="M-1-1h20v20H-1z"/><g stroke="#fff" stroke-width="2" stroke-linecap="round" stroke-linejoin="round"><path d="M14 9.833v5c0 1.111-.556 1.667-1.667 1.667H3.167c-1.111 0-1.667-.556-1.667-1.667V5.667c0-.46.163-.853.488-1.179A1.606 1.606 0 0 1 3.167 4h5M11.5 1.5h5v5M7.333 10.667L16.5 1.5"/></g></g></symbol><symbol id="icon-house" viewBox="0 0 18 20"><g fill="none" fill-rule="evenodd"><path d="M-1 0h20v20H-1z"/><path stroke="#783FC4" stroke-width="2" d="M1.5 7.5L9 1.667 16.5 7.5v9.167c0 1.111-.556 1.667-1.667 1.667H3.167c-1.111 0-1.667-.556-1.667-1.667V7.5z" stroke-linecap="round" stroke-linejoin="round"/></g></symbol><symbol id="icon-lock" viewBox="0 0 18 20"><g fill="none" fill-rule="evenodd"><path d="M-1 0h20v20H-1z"/><path d="M3.167 9.166h11.666c1.111 0 1.667.556 1.667 1.667v5.833c0 1.111-.556 1.667-1.667 1.667H3.167c-1.111 0-1.667-.556-1.667-1.667v-5.833c0-1.111.556-1.667 1.667-1.667zm1.666 0V5.833c-.002-2.514 1.247-3.897 3.748-4.15 2.501-.252 4.002.853 4.502 3.317" stroke="#FFF" stroke-width="2" stroke-linecap="round" stroke-linejoin="round"/></g></symbol><symbol id="icon-mail" viewBox="0 0 36 36"><title>email-line</title><path class="clr-i-outline clr-i-outline-path-1" d="M32 6H4a2 2 0 0 0-2 2v20a2 2 0 0 0 2 2h28a2 2 0 0 0 2-2V8a2 2 0 0 0-2-2zm-1.54 22H5.66l7-7.24-1.44-1.39L4 26.84V9.52l12.43 12.37a2 2 0 0 0 2.82 0L32 9.21v17.5l-7.36-7.36-1.41 1.41zM5.31 8h25.07L17.84 20.47z"/><path fill="none" d="M0 0h36v36H0z"/></symbol><symbol id="icon-people" viewBox="0 0 22 14"><path fill="#666" d="M15.5 8c-1.2 0-3.07.34-4.5 1-1.43-.67-3.3-1-4.5-1C4.33 8 0 9.08 0 11.25V14h22v-2.75C22 9.08 17.67 8 15.5 8zm-4 4.5h-10v-1.25c0-.54 2.56-1.75 5-1.75s5 1.21 5 1.75v1.25zm9 0H13v-1.25c0-.46-.2-.86-.52-1.22.88-.3 1.96-.53 3.02-.53 2.44 0 5 1.21 5 1.75v1.25zM6.5 7C8.43 7 10 5.43 10 3.5S8.43 0 6.5 0 3 1.57 3 3.5 4.57 7 6.5 7zm0-5.5c1.1 0 2 .9 2 2s-.9 2-2 2-2-.9-2-2 .9-2 2-2zm9 5.5C17.43 7 19 5.43 19 3.5S17.43 0 15.5 0 12 1.57 12 3.5 13.57 7 15.5 7zm0-5.5c1.1 0 2 .9 2 2s-.9 2-2 2-2-.9-2-2 .9-2 2-2z"/></symbol><symbol id="icon-person" viewBox="0 0 16 16"><path fill="#1A873A" d="M8 1.9a2.1 2.1 0 1 1 0 4.2 2.1 2.1 0 0 1 0-4.2zm0 9c2.97 0 6.1 1.46 6.1 2.1v1.1H1.9V13c0-.64 3.13-2.1 6.1-2.1zM8 0C5.79 0 4 1.79 4 4s1.79 4 4 4 4-1.79 4-4-1.79-4-4-4zm0 9c-2.67 0-8 1.34-8 4v3h16v-3c0-2.66-5.33-4-8-4z"/></symbol><symbol id="icon-phone" viewBox="0 0 36 36"><title>phone-handset-line</title><path class="clr-i-outline clr-i-outline-path-1" d="M27.73 35.44a4.72 4.72 0 0 1-1-.11 33.91 33.91 0 0 1-16.62-8.75 32.71 32.71 0 0 1-9-16.25 4.58 4.58 0 0 1 1.35-4.28l4-3.85A2 2 0 0 1 8 1.66a2 2 0 0 1 1.45.87l5 7.39a1.6 1.6 0 0 1-.11 1.9l-2.51 3A18.94 18.94 0 0 0 16 20.71a19.26 19.26 0 0 0 6.07 4.09l3.11-2.47a1.64 1.64 0 0 1 1.86-.12l7.55 4.88A2 2 0 0 1 35 30.2l-3.9 3.86a4.74 4.74 0 0 1-3.37 1.38zM7.84 3.64l-4 3.85a2.54 2.54 0 0 0-.75 2.4 30.7 30.7 0 0 0 8.41 15.26 31.9 31.9 0 0 0 15.64 8.23 2.75 2.75 0 0 0 2.5-.74l3.9-3.86-7.29-4.71-3.34 2.66a1 1 0 0 1-.92.17 20.06 20.06 0 0 1-7.36-4.75 19.49 19.49 0 0 1-4.87-7.2A1 1 0 0 1 10 14l2.7-3.23z"/><path fill="none" d="M0 0h36v36H0z"/></symbol><symbol id="icon-pin" viewBox="0 0 36 36"><title>map-marker-line</title><path class="clr-i-outline clr-i-outline-path-1" d="M18 6.72a5.73 5.73 0 1 0 5.73 5.73A5.73 5.73 0 0 0 18 6.72zm0 9.46a3.73 3.73 0 1 1 3.73-3.73A3.73 3.73 0 0 1 18 16.17z"/><path class="clr-i-outline clr-i-outline-path-2" d="M18 2A11.79 11.79 0 0 0 6.22 13.73c0 4.67 2.62 8.58 4.54 11.43l.35.52a99.61 99.61 0 0 0 6.14 8l.76.89.76-.89a99.82 99.82 0 0 0 6.14-8l.35-.53c1.91-2.85 4.53-6.75 4.53-11.42A11.79 11.79 0 0 0 18 2zm5.59 22l-.36.53c-1.72 2.58-4 5.47-5.23 6.9-1.18-1.43-3.51-4.32-5.23-6.9l-.35-.53c-1.77-2.64-4.2-6.25-4.2-10.31a9.78 9.78 0 1 1 19.56 0c0 4.1-2.42 7.71-4.19 10.31z"/><path fill="none" d="M0 0h36v36H0z"/></symbol><symbol id="icon-search" viewBox="0 0 18 18"><path class="st1" d="M16.5 17.5c-.3 0-.5-.1-.7-.3l-3.7-3.7c-1.3 1-2.7 1.5-4.4 1.5-2 0-3.7-.7-5.1-2.1C1.2 11.5.5 9.7.5 7.8c0-2 .7-3.7 2.1-5.1S5.8.5 7.8.5s3.7.7 5.1 2.1C14.3 4 15 5.7 15 7.7c0 1.7-.5 3.1-1.5 4.4l3.7 3.7c.4.4.4 1 0 1.4-.2.2-.4.3-.7.3zm-8.7-15C6.3 2.5 5.1 3 4 4S2.5 6.3 2.5 7.8 3 10.4 4 11.5c1 1 2.2 1.5 3.7 1.5 1.4 0 2.6-.5 3.7-1.5v-.1c0-.1 0 0 .1 0 1-1 1.5-2.2 1.5-3.7S12.5 5 11.5 4c-1.1-1-2.3-1.5-3.7-1.5z"/></symbol><symbol id="icon-trashcan" viewBox="0 0 16 26"><g fill="none"><path fill="#008830" d="M13.504 1.212a46.571 46.571 0 0 0-8.421-.72C1.478.573 0 .558 0 2.61c0 1.404.05 10.392.069 16.297a4.536 4.536 0 0 1 6.403 6.403c3.019-.197 6.323-.429 6.801-.448 1.768-.064 2.137-.419 2.167-1.862.044-2.463.197-16.13.27-18.395.075-2.266.277-2.935-2.206-3.393z"/><circle cx="3.044" cy="22.35" r="2.793" fill="#1B1C20"/></g></symbol><symbol id="logo-or-alt" viewBox="0 0 105 29"><g fill="none"><path d="M31.987 8.822a7.503 7.503 0 0 1-.327 2.307 4.197 4.197 0 0 1-.9 1.601 3.55 3.55 0 0 1-1.386.92 5.421 5.421 0 0 1-3.527 0 3.615 3.615 0 0 1-1.393-.92 4.174 4.174 0 0 1-.903-1.615 7.446 7.446 0 0 1-.327-2.306v-2.09a7.347 7.347 0 0 1 .327-2.307 4.252 4.252 0 0 1 .916-1.611 3.596 3.596 0 0 1 1.374-.91 5.466 5.466 0 0 1 3.53 0c.524.195.995.511 1.376.923.415.46.724 1.005.907 1.598.23.747.34 1.526.327 2.307l.006 2.103zm-1.485 0V6.719a6.638 6.638 0 0 0-.203-1.736 3.104 3.104 0 0 0-.566-1.18 2.238 2.238 0 0 0-.893-.66 3.25 3.25 0 0 0-1.226-.214c-1.928 0-2.892 1.262-2.892 3.784v2.102c-.024.74.093 1.477.347 2.172.184.507.529.94.981 1.23.475.266 1.013.398 1.557.381 1.93.005 2.895-1.254 2.895-3.776zm9.76 4.468a.408.408 0 0 1-.068.264.476.476 0 0 1-.271.119c-.983.183-1.98.274-2.98.27a3.678 3.678 0 0 1-1.963-.491 2.93 2.93 0 0 1-1.177-1.407 5.497 5.497 0 0 1-.383-2.136V8.743c-.01-.58.065-1.159.22-1.717.126-.457.349-.88.653-1.243.3-.343.678-.608 1.103-.77a4.169 4.169 0 0 1 1.553-.268 10.22 10.22 0 0 1 1.898.168V1.878a.293.293 0 0 1 .3-.323h.821c.08-.003.159.03.213.09.053.062.081.141.079.223l.003 11.422zm-1.422-.702V6.116c-.28-.05-.563-.08-.847-.092-.301-.013-.651-.02-1.05-.02-.76 0-1.304.229-1.636.686-.331.457-.491 1.14-.48 2.053v1.17c0 .933.159 1.63.477 2.089.318.459.864.689 1.636.689.466.002 1.1-.032 1.9-.103zm6.627.106c.355 0 .709-.033 1.057-.102.342-.068.68-.16 1.01-.274.33-.114.595-.21.795-.29a.273.273 0 0 1 .272 0c.067.05.104.133.098.218v.659c0 .112-.075.21-.223.293-.926.495-1.96.75-3.009.745a4.524 4.524 0 0 1-1.838-.363 2.86 2.86 0 0 1-1.332-1.235 4.592 4.592 0 0 1-.507-2.307v-1.47c0-1.18.316-2.11.946-2.791.63-.681 1.514-1.022 2.653-1.022a3.82 3.82 0 0 1 1.962.465c.53.302.951.763 1.207 1.318a4.74 4.74 0 0 1 .403 2.03v.883c0 .24-.103.36-.308.36H43.23v.23c0 .945.183 1.625.55 2.04.366.415.928.62 1.687.613zm2.041-3.981v-.145a3.958 3.958 0 0 0-.232-1.473 1.58 1.58 0 0 0-.687-.834 2.457 2.457 0 0 0-1.184-.254c-1.45 0-2.175.853-2.175 2.558v.151l4.278-.003zm9.84-.56v5.358a.304.304 0 0 1-.102.23.326.326 0 0 1-.222.096h-.763a.328.328 0 0 1-.327-.33V8.154a3.514 3.514 0 0 0-.193-1.292 1.259 1.259 0 0 0-.608-.686 2.424 2.424 0 0 0-1.08-.207 7.998 7.998 0 0 0-2.086.293v7.25c0 .182-.147.33-.327.33h-.792a.293.293 0 0 1-.213-.096.33.33 0 0 1-.095-.23v-7.87a.372.372 0 0 1 .292-.389 13.725 13.725 0 0 1 3.336-.51 4.548 4.548 0 0 1 1.537.227c.381.125.72.353.982.659.244.307.417.665.507 1.048.11.483.162.977.153 1.473zm4.268 4.57c1.176 0 1.763-.414 1.763-1.242a.923.923 0 0 0-.252-.659 3.773 3.773 0 0 0-.955-.636l-1.635-.844a3.603 3.603 0 0 1-1.23-.988 2.256 2.256 0 0 1-.429-1.388 1.937 1.937 0 0 1 .435-1.318c.3-.34.69-.584 1.126-.705a5.522 5.522 0 0 1 1.534-.198c.44.001.878.05 1.308.145.334.064.658.175.962.33.061.032.12.07.173.115.037.049.054.11.046.172v.659a.238.238 0 0 1-.098.21.292.292 0 0 1-.272 0 6.104 6.104 0 0 0-1.046-.29 5.703 5.703 0 0 0-1.07-.115 3.187 3.187 0 0 0-1.214.191.765.765 0 0 0-.454.788c-.006.26.088.513.261.705.25.247.538.45.854.6l1.606.827c.385.188.744.426 1.067.709.233.209.418.466.543.754.112.279.167.577.163.877a2.34 2.34 0 0 1-.412 1.407 2.416 2.416 0 0 1-1.129.844 4.585 4.585 0 0 1-1.635.273c-.465 0-.928-.055-1.38-.165a4.882 4.882 0 0 1-1.047-.356c-.153-.079-.23-.176-.23-.293v-.659a.245.245 0 0 1 .102-.214.267.267 0 0 1 .269 0 6.227 6.227 0 0 0 2.276.465zm8.158-.03c.355.002.709-.032 1.057-.101.342-.068.68-.16 1.01-.274.33-.114.595-.21.795-.29a.273.273 0 0 1 .272 0c.067.05.104.133.098.218v.659c0 .112-.075.21-.223.293a6.318 6.318 0 0 1-3.012.748 4.524 4.524 0 0 1-1.838-.362 2.86 2.86 0 0 1-1.332-1.236 4.592 4.592 0 0 1-.507-2.307V8.568c0-1.18.315-2.11.946-2.791.63-.681 1.514-1.022 2.652-1.022a3.82 3.82 0 0 1 1.963.465c.529.302.95.763 1.207 1.318.277.64.41 1.333.39 2.03v.883c0 .24-.103.36-.308.36H67.52v.23c0 .945.184 1.625.55 2.04.366.415.934.62 1.704.613zm2.041-3.98v-.145a3.958 3.958 0 0 0-.232-1.473 1.579 1.579 0 0 0-.703-.834 2.457 2.457 0 0 0-1.184-.254c-1.45 0-2.176.853-2.176 2.558v.151l4.295-.003zM31.696 28.446c0 .143-.069.214-.206.214h-1.037a.617.617 0 0 1-.249-.036.552.552 0 0 1-.176-.178l-2.879-4.857h-.435c-.327 0-.922-.016-1.786-.046v4.798a.331.331 0 0 1-.078.234.267.267 0 0 1-.213.092h-.87a.27.27 0 0 1-.216-.096.331.331 0 0 1-.082-.234V16.915c0-.22.13-.339.386-.359a25.076 25.076 0 0 1 1.986-.115h.867a7.432 7.432 0 0 1 2.355.33 3.163 3.163 0 0 1 1.593 1.126 3.35 3.35 0 0 1 .582 2.04v.119a3.249 3.249 0 0 1-.69 2.142c-.48.569-1.125.97-1.845 1.147l2.944 4.96c.03.04.047.09.05.141zm-1.907-8.393v-.119c.025-.447-.09-.89-.327-1.269a1.86 1.86 0 0 0-1.01-.688 5.986 5.986 0 0 0-1.725-.208c-.933 0-1.528.016-1.786.05v4.465c.949.022 1.544.033 1.786.033a6.019 6.019 0 0 0 1.711-.205c.402-.11.755-.354 1.001-.692a2.32 2.32 0 0 0 .35-1.367zm6.477 7.47c.354.001.708-.033 1.056-.102.343-.068.68-.16 1.011-.273.33-.114.594-.211.795-.29a.273.273 0 0 1 .271 0c.068.05.105.133.098.217v.66c0 .111-.075.21-.222.293a6.318 6.318 0 0 1-3.013.748 4.517 4.517 0 0 1-1.838-.363 2.857 2.857 0 0 1-1.331-1.236 4.592 4.592 0 0 1-.507-2.306v-1.473c0-1.178.315-2.108.945-2.792.63-.683 1.515-1.025 2.653-1.025a3.82 3.82 0 0 1 1.963.465c.528.302.95.763 1.207 1.318.277.64.41 1.335.389 2.034v.883c0 .24-.103.359-.308.359h-5.417v.23c0 .945.184 1.625.55 2.04.366.416.932.62 1.698.613zm2.04-3.98v-.145a3.958 3.958 0 0 0-.231-1.474 1.579 1.579 0 0 0-.704-.833 2.457 2.457 0 0 0-1.184-.254c-1.446-.002-2.169.851-2.169 2.56v.152l4.289-.006zm9.824-.56v5.358a.304.304 0 0 1-.102.23.326.326 0 0 1-.222.096h-.775a.328.328 0 0 1-.327-.33v-5.355a3.514 3.514 0 0 0-.193-1.292 1.259 1.259 0 0 0-.609-.685 2.428 2.428 0 0 0-1.08-.208 7.991 7.991 0 0 0-2.086.294v7.25c0 .182-.147.33-.327.33h-.792a.293.293 0 0 1-.213-.096.33.33 0 0 1-.094-.231v-7.87a.372.372 0 0 1 .29-.388c1.09-.308 2.213-.48 3.344-.511a4.548 4.548 0 0 1 1.537.227c.38.125.72.353.981.66.245.306.418.664.507 1.047.113.483.167.978.16 1.473zm8.733 1.815c0 1.222-.31 2.19-.929 2.903-.619.714-1.51 1.071-2.675 1.071-1.16 0-2.05-.357-2.67-1.07-.619-.715-.928-1.682-.928-2.904v-1.242c0-1.226.31-2.196.929-2.91s1.509-1.071 2.669-1.071c1.164 0 2.056.357 2.675 1.07.62.715.93 1.685.93 2.91v1.243zm-1.423 0v-1.242a4.098 4.098 0 0 0-.232-1.463 1.913 1.913 0 0 0-.72-.936 2.16 2.16 0 0 0-1.23-.33 1.92 1.92 0 0 0-1.635.712c-.392.593-.58 1.299-.536 2.01v1.243c0 1.814.725 2.723 2.175 2.725a1.933 1.933 0 0 0 1.635-.709 3.264 3.264 0 0 0 .543-2.01zm9.614-4.834c.006.039.006.079 0 .118l-2.182 7.764c-.065.3-.25.558-.51.716-.295.15-.622.22-.952.207a1.902 1.902 0 0 1-.932-.204 1.17 1.17 0 0 1-.52-.722l-2.182-7.764a.385.385 0 0 1 0-.119.278.278 0 0 1 .069-.197.241.241 0 0 1 .186-.073h.847c.142 0 .245.103.308.31l1.858 7.105c.03.138.083.269.157.389.043.057.111.09.183.089a.238.238 0 0 0 .19-.096 1.05 1.05 0 0 0 .15-.382L63.59 20c.063-.207.165-.31.307-.31h.887a.25.25 0 0 1 .196.073c.05.054.076.126.075.2zm7.4 8.077a.33.33 0 0 1-.246.359 9.75 9.75 0 0 1-1.276.28c-.483.067-.97.1-1.459.096-1.26 0-2.165-.214-2.715-.643-.55-.428-.825-1.112-.827-2.05v-.145a2.672 2.672 0 0 1 .382-1.496c.304-.422.741-.726 1.24-.863a7.451 7.451 0 0 1 2.273-.284h1.2v-.659c0-.679-.128-1.15-.385-1.413-.257-.264-.706-.396-1.344-.396a6.884 6.884 0 0 0-1.26.099c-.41.081-.814.183-1.213.306a.325.325 0 0 1-.272 0 .215.215 0 0 1-.108-.197v-.64a.33.33 0 0 1 .23-.293 6.757 6.757 0 0 1 1.102-.346 6.376 6.376 0 0 1 1.52-.178c2.103 0 3.154 1.022 3.154 3.065l.003 5.398zm-1.424-.534v-3.17h-1.2c-.41-.008-.821.02-1.227.082-.26.038-.51.131-.733.274a1.053 1.053 0 0 0-.386.48 2.054 2.054 0 0 0-.114.746v.141c-.014.316.047.631.177.92.142.25.377.43.654.504.417.12.851.174 1.285.158a9.438 9.438 0 0 0 1.168-.072c.127-.014.252-.035.376-.063zm7.74.906c0 .16-.098.254-.292.28a7.167 7.167 0 0 1-1.05.08c-.791 0-1.355-.151-1.69-.452-.337-.301-.505-.878-.505-1.73v-5.695l-1.573-.174c-.205-.016-.307-.114-.307-.294v-.448c0-.191.102-.287.307-.287h1.573v-1.598a.309.309 0 0 1 .285-.33l.847-.128h.046a.228.228 0 0 1 .177.076c.046.054.07.123.068.194v1.783h1.747c.18 0 .327.148.327.33v.55a.304.304 0 0 1-.101.23.326.326 0 0 1-.223.096H76.66v5.695c-.037.293.028.59.183.84a.956.956 0 0 0 .687.188h.91c.217 0 .326.077.326.23l.003.564zm2.813-10.486a.311.311 0 0 1-.095.234.326.326 0 0 1-.23.092h-.82a.328.328 0 0 1-.327-.33V16.63a.33.33 0 0 1 .091-.231.306.306 0 0 1 .232-.096h.821a.3.3 0 0 1 .24.088.304.304 0 0 1 .088.242v1.295zm-.033 10.414a.33.33 0 0 1-.095.234.326.326 0 0 1-.229.092h-.759a.326.326 0 0 1-.222-.096.304.304 0 0 1-.105-.23V20.02c0-.182.146-.33.327-.33h.775a.3.3 0 0 1 .24.088.304.304 0 0 1 .087.242l-.02 8.32zm8.904-3.543c0 1.222-.31 2.19-.93 2.903-.619.714-1.51 1.071-2.675 1.071-1.16 0-2.05-.357-2.67-1.07-.619-.715-.928-1.682-.928-2.904v-1.242c0-1.226.31-2.196.929-2.91s1.509-1.071 2.669-1.071c1.164 0 2.056.357 2.676 1.07.619.715.929 1.685.929 2.91v1.243zm-1.423 0v-1.242a4.098 4.098 0 0 0-.233-1.463 1.913 1.913 0 0 0-.72-.936 2.16 2.16 0 0 0-1.23-.33 1.92 1.92 0 0 0-1.635.712c-.391.593-.58 1.299-.536 2.01v1.243c0 1.814.725 2.723 2.175 2.725a1.933 1.933 0 0 0 1.636-.709 3.264 3.264 0 0 0 .543-2.01zm9.777-1.816v5.359a.304.304 0 0 1-.102.23.326.326 0 0 1-.222.096h-.775a.328.328 0 0 1-.327-.33v-5.355a3.514 3.514 0 0 0-.193-1.292 1.259 1.259 0 0 0-.609-.685 2.428 2.428 0 0 0-1.08-.208 7.991 7.991 0 0 0-2.086.294v7.25c0 .182-.147.33-.327.33h-.792a.293.293 0 0 1-.212-.096.33.33 0 0 1-.095-.231v-7.87a.372.372 0 0 1 .29-.388c1.09-.308 2.213-.48 3.344-.511a4.548 4.548 0 0 1 1.537.227c.38.125.72.353.981.66.245.306.418.664.507 1.047.113.483.167.978.16 1.473zM104.562 22.992a.07.07 0 0 1-.023.056.078.078 0 0 1-.056.02h-.464a.078.078 0 0 1-.053-.023.102.102 0 0 1-.032-.053l-.203-.843h-1.02l-.204.843a.099.099 0 0 1-.032.053.078.078 0 0 1-.053.023h-.464a.081.081 0 0 1-.056-.02.073.073 0 0 1-.023-.056l.723-2.788a.654.654 0 0 1 1.227 0l.723 2.788h.01zm-.952-1.35l-.327-1.319a.136.136 0 0 0-.026-.056.065.065 0 0 0-.046 0 .062.062 0 0 0-.043 0 .132.132 0 0 0-.026.056l-.327 1.318h.795zm-.53 6.518a.65.65 0 0 0 .402-.1.374.374 0 0 0 .118-.302.331.331 0 0 0-.075-.218 1.188 1.188 0 0 0-.291-.217l-.583-.353a1.45 1.45 0 0 1-.327-.247.723.723 0 0 1-.16-.267.956.956 0 0 1-.046-.3.784.784 0 0 1 .265-.616c.237-.172.527-.253.818-.228a1.728 1.728 0 0 1 .759.172c.026.014.05.032.072.052a.093.093 0 0 1 .023.066v.3c0 .073-.036.096-.112.066a2.214 2.214 0 0 0-.343-.089 2.108 2.108 0 0 0-.4-.043c-.309 0-.464.104-.464.31a.251.251 0 0 0 .072.181c.089.079.185.147.288.205l.53.33c.133.075.256.17.363.28.08.081.143.179.183.286a.995.995 0 0 1 .053.33.958.958 0 0 1-.111.454.83.83 0 0 1-.367.33c-.205.095-.429.14-.654.132a1.835 1.835 0 0 1-.497-.063 1.442 1.442 0 0 1-.327-.115.38.38 0 0 1-.082-.056.093.093 0 0 1-.02-.063v-.303c0-.068.037-.09.112-.066.257.093.527.144.8.152z" fill="#1B1C20"/><path fill="#008830" d="M15.462 1.157A52.949 52.949 0 0 0 5.82.33C1.678.419 0 .402 0 2.775 0 4.393.056 14.76.082 21.559a5.174 5.174 0 0 1 7.355.031A5.267 5.267 0 0 1 7.406 29c3.457-.227 7.238-.498 7.785-.517 2.024-.073 2.45-.485 2.48-2.146.051-2.857.225-18.603.31-21.216.085-2.613.32-3.43-2.519-3.964z"/><ellipse cx="3.484" cy="25.54" fill="#1B1C20" rx="3.196" ry="3.22"/></g></symbol><symbol id="logo-or" viewBox="0 0 230 26"><g fill="none"><path fill="#008830" d="M13.504 1.212a46.571 46.571 0 0 0-8.421-.72C1.478.573 0 .558 0 2.61c0 1.404.05 10.392.069 16.297a4.536 4.536 0 0 1 6.403 6.403c3.019-.197 6.323-.429 6.801-.448 1.768-.064 2.137-.419 2.167-1.862.044-2.463.197-16.13.27-18.395.075-2.266.277-2.935-2.206-3.393z"/><circle cx="3.044" cy="22.35" r="2.793" fill="#1B1C20"/><path d="M36.731 17.13a11.13 11.13 0 0 1-.492 3.447 6.26 6.26 0 0 1-1.355 2.393 5.344 5.344 0 0 1-2.088 1.374 8.215 8.215 0 0 1-5.309 0 5.442 5.442 0 0 1-2.098-1.374 6.225 6.225 0 0 1-1.374-2.408 11.052 11.052 0 0 1-.493-3.448v-3.127a10.904 10.904 0 0 1 .493-3.447 6.343 6.343 0 0 1 1.379-2.409 5.418 5.418 0 0 1 2.083-1.374 8.289 8.289 0 0 1 5.314 0c.791.289 1.503.76 2.079 1.374a6.329 6.329 0 0 1 1.364 2.389c.346 1.116.512 2.28.492 3.447l.005 3.162zm-2.236 0v-3.143a9.85 9.85 0 0 0-.305-2.595 4.625 4.625 0 0 0-.852-1.764 3.369 3.369 0 0 0-1.345-.985 4.925 4.925 0 0 0-1.846-.32c-2.903 0-4.354 1.885-4.354 5.654v3.142a8.575 8.575 0 0 0 .522 3.246 3.67 3.67 0 0 0 1.477 1.837c.716.4 1.526.597 2.345.571 2.892.007 4.339-1.874 4.339-5.644h.02zm14.702 6.673a.61.61 0 0 1-.104.394.724.724 0 0 1-.409.177c-1.48.274-2.981.41-4.486.404a5.57 5.57 0 0 1-2.955-.734 4.383 4.383 0 0 1-1.773-2.103 8.16 8.16 0 0 1-.562-3.182v-1.748a9.028 9.028 0 0 1 .325-2.566c.191-.682.527-1.316.985-1.857a4.206 4.206 0 0 1 1.645-1.157 6.319 6.319 0 0 1 2.34-.399c.957-.005 1.914.08 2.856.251v-4.53a.458.458 0 0 1 .123-.35.443.443 0 0 1 .335-.138h1.241a.414.414 0 0 1 .32.133c.08.093.122.212.119.334v17.07zm-2.143-1.05v-9.672a9.584 9.584 0 0 0-1.275-.138c-.453-.02-.98-.03-1.581-.03-1.143 0-1.964.342-2.463 1.025-.499.683-.74 1.706-.724 3.068v1.749c0 1.395.24 2.436.72 3.122.479.686 1.3 1.03 2.462 1.03.7.003 1.653-.047 2.861-.148v-.005zm9.998.158a8.121 8.121 0 0 0 1.59-.152 11.663 11.663 0 0 0 1.523-.41c.495-.17.894-.314 1.196-.433a.414.414 0 0 1 .41 0 .37.37 0 0 1 .147.325v.985c0 .168-.113.316-.335.439a9.574 9.574 0 0 1-4.536 1.118 6.856 6.856 0 0 1-2.768-.542 4.29 4.29 0 0 1-2.004-1.847 6.816 6.816 0 0 1-.764-3.447v-2.202c0-1.763.475-3.154 1.424-4.171.949-1.018 2.28-1.527 3.994-1.527a5.787 5.787 0 0 1 2.955.694 4.388 4.388 0 0 1 1.817 1.97c.418.956.618 1.992.586 3.034v1.32c0 .358-.154.537-.463.537H53.66v.345c0 1.411.276 2.428.827 3.048.552.62 1.407.926 2.566.916zm3.073-5.95v-.216a5.876 5.876 0 0 0-.35-2.201 2.364 2.364 0 0 0-1.058-1.246 3.723 3.723 0 0 0-1.783-.38c-2.184 0-3.275 1.274-3.275 3.822v.227l6.466-.005zm14.79-.832v8.004a.453.453 0 0 1-.152.344.493.493 0 0 1-.335.143H73.26a.493.493 0 0 1-.492-.492v-7.999a5.216 5.216 0 0 0-.29-1.925 1.886 1.886 0 0 0-.917-1.025 3.674 3.674 0 0 0-1.625-.31 12.125 12.125 0 0 0-3.142.438v10.826c0 .272-.22.492-.493.492H65.11a.443.443 0 0 1-.32-.143.493.493 0 0 1-.142-.344V12.382a.557.557 0 0 1 .438-.582c1.64-.46 3.33-.716 5.033-.763a6.895 6.895 0 0 1 2.315.34 3.305 3.305 0 0 1 1.478.985c.368.458.629.994.763 1.566.17.721.25 1.46.241 2.201zm6.427 6.832c1.77 0 2.655-.62 2.655-1.857.01-.366-.127-.72-.38-.985a5.703 5.703 0 0 0-1.437-.95l-2.463-1.262a5.418 5.418 0 0 1-1.852-1.477 3.354 3.354 0 0 1-.635-2.059c-.034-.715.2-1.417.655-1.97a3.512 3.512 0 0 1 1.684-1.073 8.373 8.373 0 0 1 2.31-.296 9.215 9.215 0 0 1 1.97.217c.504.095.991.261 1.448.492.093.049.18.107.261.173a.345.345 0 0 1 .07.256v.985a.355.355 0 0 1-.149.315.443.443 0 0 1-.408 0 9.244 9.244 0 0 0-1.576-.433 8.648 8.648 0 0 0-1.61-.173 4.831 4.831 0 0 0-1.828.286c-.463.199-.74.677-.685 1.177-.008.389.133.766.394 1.054.375.37.81.673 1.286.896l2.418 1.236c.58.281 1.12.637 1.606 1.06.35.312.63.696.817 1.127.169.416.252.861.246 1.31a3.472 3.472 0 0 1-.62 2.098 3.635 3.635 0 0 1-1.7 1.261 6.944 6.944 0 0 1-2.462.409c-.7 0-1.398-.083-2.078-.246a7.388 7.388 0 0 1-1.576-.527c-.23-.119-.345-.265-.345-.439v-.985a.364.364 0 0 1 .153-.32.404.404 0 0 1 .404 0 9.436 9.436 0 0 0 3.427.7zm12.284-.05a8.121 8.121 0 0 0 1.59-.152 11.663 11.663 0 0 0 1.522-.41c.496-.17.895-.314 1.197-.433a.414.414 0 0 1 .409 0 .37.37 0 0 1 .147.325v.985c0 .168-.113.316-.334.439a9.574 9.574 0 0 1-4.536 1.118 6.856 6.856 0 0 1-2.768-.542 4.29 4.29 0 0 1-2.005-1.847 6.816 6.816 0 0 1-.763-3.447v-2.202c0-1.763.474-3.154 1.423-4.171.95-1.018 2.28-1.527 3.994-1.527a5.787 5.787 0 0 1 2.955.694 4.388 4.388 0 0 1 1.818 1.97c.417.956.618 1.992.586 3.034v1.32c0 .358-.154.537-.463.537h-8.166v.345c0 1.411.276 2.428.828 3.048.551.62 1.406.926 2.566.916zm3.073-5.95v-.216a5.876 5.876 0 0 0-.35-2.201 2.364 2.364 0 0 0-1.059-1.246 3.723 3.723 0 0 0-1.783-.38c-2.183 0-3.275 1.274-3.275 3.822v.227l6.467-.005zm23.123 7.334c0 .214-.104.32-.31.32h-1.562a.946.946 0 0 1-.374-.054.832.832 0 0 1-.266-.266l-4.354-7.26h-.63a90.68 90.68 0 0 1-2.69-.068v7.166a.493.493 0 0 1-.117.35.404.404 0 0 1-.32.137h-1.31a.409.409 0 0 1-.316-.138.493.493 0 0 1-.123-.35V7.059c0-.329.194-.508.581-.537a28.83 28.83 0 0 1 1.305-.104 38.05 38.05 0 0 1 1.69-.069h1.305c1.2-.026 2.398.14 3.546.493a4.763 4.763 0 0 1 2.398 1.684 4.98 4.98 0 0 1 .877 3.049v.177a4.836 4.836 0 0 1-1.04 3.201 5.28 5.28 0 0 1-2.777 1.714l4.433 7.417a.384.384 0 0 1 .054.212zm-2.867-12.544v-.177a3.211 3.211 0 0 0-.492-1.896 2.797 2.797 0 0 0-1.522-1.03 9.062 9.062 0 0 0-2.595-.31c-1.406 0-2.302.023-2.69.069v6.673c1.429.033 2.325.05 2.69.05a9.116 9.116 0 0 0 2.575-.306 2.778 2.778 0 0 0 1.508-1.034c.385-.61.569-1.324.526-2.044v.005zm9.747 11.16a8.121 8.121 0 0 0 1.591-.152 11.663 11.663 0 0 0 1.522-.41c.496-.17.895-.314 1.197-.433a.414.414 0 0 1 .408 0 .37.37 0 0 1 .148.325v.985c0 .168-.113.316-.335.439a9.574 9.574 0 0 1-4.536 1.118 6.856 6.856 0 0 1-2.768-.542 4.29 4.29 0 0 1-2.004-1.847 6.816 6.816 0 0 1-.764-3.447v-2.202c0-1.763.475-3.154 1.424-4.171.949-1.018 2.28-1.527 3.994-1.527a5.787 5.787 0 0 1 2.955.694 4.388 4.388 0 0 1 1.817 1.97c.418.956.618 1.992.587 3.034v1.32c0 .358-.155.537-.463.537h-8.166v.345c0 1.411.276 2.428.827 3.048.552.62 1.407.926 2.566.916zm3.073-5.95v-.216a5.876 5.876 0 0 0-.35-2.201 2.364 2.364 0 0 0-1.058-1.246 3.723 3.723 0 0 0-1.783-.38c-2.183 0-3.275 1.274-3.275 3.822v.227l6.466-.005zm14.79-.832v8.004a.453.453 0 0 1-.152.344.493.493 0 0 1-.335.143h-1.167a.493.493 0 0 1-.493-.492v-7.999a5.216 5.216 0 0 0-.29-1.925 1.886 1.886 0 0 0-.917-1.025 3.674 3.674 0 0 0-1.625-.31 12.125 12.125 0 0 0-3.142.438v10.826c0 .272-.22.492-.493.492h-1.191a.443.443 0 0 1-.32-.143.493.493 0 0 1-.143-.344V12.382a.557.557 0 0 1 .438-.582c1.64-.46 3.33-.716 5.033-.763a6.895 6.895 0 0 1 2.315.34 3.305 3.305 0 0 1 1.478.985c.368.458.629.994.763 1.566.17.721.25 1.46.241 2.201zm13.155 2.714c0 1.826-.466 3.272-1.399 4.34-.932 1.066-2.275 1.6-4.028 1.6-1.747 0-3.087-.534-4.02-1.6-.932-1.068-1.398-2.514-1.398-4.34v-1.857c0-1.832.466-3.281 1.399-4.348.932-1.067 2.272-1.601 4.019-1.601 1.753 0 3.096.534 4.028 1.6.933 1.068 1.4 2.517 1.4 4.35v1.856zm-2.142 0v-1.857a6.082 6.082 0 0 0-.35-2.181 2.861 2.861 0 0 0-1.083-1.4 3.27 3.27 0 0 0-1.852-.492 2.896 2.896 0 0 0-2.463 1.064 4.88 4.88 0 0 0-.807 3.005v1.856c0 2.712 1.091 4.068 3.275 4.068a2.92 2.92 0 0 0 2.462-1.059c.596-.884.883-1.94.818-3.004zm14.47-7.225c.009.059.009.119 0 .177L166.763 23.4a1.67 1.67 0 0 1-.788 1.074c-.444.223-.937.33-1.434.31a2.876 2.876 0 0 1-1.403-.306 1.743 1.743 0 0 1-.783-1.078l-3.276-11.579a.571.571 0 0 1 0-.177.414.414 0 0 1 .104-.296.364.364 0 0 1 .28-.108h1.345c.214 0 .368.154.463.463l2.734 10.594c.045.205.125.402.236.58a.335.335 0 0 0 .276.134.36.36 0 0 0 .285-.143c.113-.174.19-.368.227-.571l2.807-10.619c.095-.308.25-.463.463-.463h1.335a.38.38 0 0 1 .295.109c.076.08.118.185.119.295zm11.14 12.067a.493.493 0 0 1-.37.536c-.63.182-1.271.322-1.92.419-.728.1-1.462.148-2.197.143-1.897 0-3.26-.32-4.087-.96-.828-.64-1.235-1.662-1.222-3.064v-.217a3.97 3.97 0 0 1 .576-2.236 3.413 3.413 0 0 1 1.867-1.29 11.328 11.328 0 0 1 3.423-.424h1.807v-.985c0-1.014-.193-1.718-.58-2.112-.388-.394-1.063-.591-2.025-.591-.635-.009-1.27.04-1.896.147-.617.122-1.227.274-1.827.458a.493.493 0 0 1-.41 0 .32.32 0 0 1-.162-.295v-.956a.493.493 0 0 1 .345-.438 10.279 10.279 0 0 1 1.66-.517 9.668 9.668 0 0 1 2.29-.266c3.165 0 4.748 1.527 4.748 4.58l-.02 8.068zm-2.142-.798v-4.733h-1.808c-.618-.012-1.236.03-1.847.123a2.788 2.788 0 0 0-1.103.409 1.576 1.576 0 0 0-.581.719 3.054 3.054 0 0 0-.172 1.113v.216c-.021.473.07.944.265 1.375.214.374.569.648.985.758a6.21 6.21 0 0 0 1.936.236c.328 0 .642-.01.94-.03.3-.019.572-.045.818-.078.19-.023.38-.058.567-.103v-.005zm11.652 1.359c0 .24-.146.38-.438.419a10.87 10.87 0 0 1-1.581.118c-1.192 0-2.04-.225-2.546-.675-.506-.45-.76-1.313-.764-2.59v-8.506L183 12.75c-.308-.023-.462-.17-.462-.438v-.67c0-.286.154-.429.462-.429h2.37V8.821a.463.463 0 0 1 .428-.493l1.275-.192h.08a.34.34 0 0 1 .265.113c.07.08.107.185.104.291v2.664h2.63c.272 0 .492.22.492.493v.822a.453.453 0 0 1-.153.345.493.493 0 0 1-.334.143h-2.63v8.515c-.055.438.042.882.275 1.256.297.223.667.323 1.035.281h1.369c.328 0 .492.115.492.345v.842zm4.236-15.676a.463.463 0 0 1-.143.35.493.493 0 0 1-.345.137h-1.236a.493.493 0 0 1-.492-.492V6.629c-.001-.128.048-.252.137-.345a.463.463 0 0 1 .35-.143h1.236a.453.453 0 0 1 .493.493V8.57zm-.044 15.563a.463.463 0 0 1-.143.35.493.493 0 0 1-.345.137h-1.167a.493.493 0 0 1-.335-.143.453.453 0 0 1-.153-.344V11.702c0-.272.22-.493.493-.493h1.167a.453.453 0 0 1 .492.493l-.01 12.43zm13.4-5.29c0 1.826-.466 3.272-1.398 4.34-.933 1.066-2.275 1.6-4.029 1.6-1.747 0-3.086-.534-4.019-1.6-.932-1.068-1.398-2.514-1.398-4.34v-1.857c0-1.832.466-3.281 1.398-4.348.933-1.067 2.272-1.601 4.02-1.601 1.753 0 3.095.534 4.028 1.6.932 1.068 1.399 2.517 1.399 4.35v1.856zm-2.142 0v-1.857a6.082 6.082 0 0 0-.35-2.181 2.861 2.861 0 0 0-1.083-1.4 3.27 3.27 0 0 0-1.852-.492 2.896 2.896 0 0 0-2.462 1.064 4.88 4.88 0 0 0-.808 3.005v1.856c0 2.712 1.092 4.068 3.275 4.068a2.92 2.92 0 0 0 2.463-1.059c.595-.884.883-1.94.817-3.004zm14.721-2.714v8.004a.453.453 0 0 1-.152.344.493.493 0 0 1-.335.143h-1.168a.493.493 0 0 1-.492-.492v-7.999a5.216 5.216 0 0 0-.29-1.925 1.886 1.886 0 0 0-.917-1.025 3.674 3.674 0 0 0-1.625-.31c-1.057.006-2.108.15-3.127.429v10.835c0 .272-.22.492-.493.492h-1.192a.443.443 0 0 1-.32-.143.493.493 0 0 1-.143-.344V12.382a.557.557 0 0 1 .439-.582c1.64-.46 3.33-.716 5.033-.763a6.895 6.895 0 0 1 2.315.34 3.305 3.305 0 0 1 1.477.985c.368.457.629.99.764 1.561a9.14 9.14 0 0 1 .226 2.206zM229.3 16.194a.108.108 0 0 1-.034.083.123.123 0 0 1-.084.03h-.709a.118.118 0 0 1-.079-.035.148.148 0 0 1-.049-.078l-.315-1.266h-1.527l-.305 1.26a.153.153 0 0 1-.05.08.118.118 0 0 1-.078.034h-.704c-.031 0-.06-.01-.084-.03a.103.103 0 0 1-.035-.083l1.089-4.167a.985.985 0 0 1 1.847 0l1.088 4.167c.01-.002.02 0 .03.005zm-1.433-2.02l-.492-1.97a.197.197 0 0 0-.04-.083.099.099 0 0 0-.068 0 .094.094 0 0 0-.07 0 .202.202 0 0 0-.039.083l-.492 1.97h1.201zm-.822 9.742a.985.985 0 0 0 .606-.148.552.552 0 0 0 .177-.453.493.493 0 0 0-.113-.325 1.773 1.773 0 0 0-.439-.325l-.852-.502c-.18-.1-.346-.224-.492-.37a1.084 1.084 0 0 1-.241-.399 1.433 1.433 0 0 1-.07-.448c-.018-.35.123-.69.385-.926a1.842 1.842 0 0 1 1.231-.34c.22 0 .438.026.65.08.171.038.336.098.493.177.04.02.076.047.108.078a.138.138 0 0 1 .034.099v.448c0 .108-.054.143-.167.099a3.34 3.34 0 0 0-.517-.133 3.191 3.191 0 0 0-.596-.064c-.466 0-.7.154-.7.463a.374.374 0 0 0 .109.27c.133.118.278.22.433.306l.798.492c.201.114.385.255.547.419.12.122.214.268.276.428.054.159.08.325.079.493.001.237-.056.47-.168.68-.13.216-.322.388-.552.492-.308.142-.645.21-.985.197a2.778 2.778 0 0 1-.748-.094 2.192 2.192 0 0 1-.493-.172.576.576 0 0 1-.123-.084.133.133 0 0 1-.03-.093v-.453c0-.104.055-.133.168-.099.384.131.786.2 1.192.207z" fill="#1B1C20"/></g></symbol><symbol id="logo" viewBox="0 0 230 26"><g fill="none"><path fill="#008830" d="M13.504 1.212a46.571 46.571 0 0 0-8.421-.72C1.478.573 0 .558 0 2.61c0 1.404.05 10.392.069 16.297a4.536 4.536 0 0 1 6.403 6.403c3.019-.197 6.323-.429 6.801-.448 1.768-.064 2.137-.419 2.167-1.862.044-2.463.197-16.13.27-18.395.075-2.266.277-2.935-2.206-3.393z"/><circle cx="3.044" cy="22.35" r="2.793" fill="#1B1C20"/><path d="M36.731 17.13a11.13 11.13 0 0 1-.492 3.447 6.26 6.26 0 0 1-1.355 2.393 5.344 5.344 0 0 1-2.088 1.374 8.215 8.215 0 0 1-5.309 0 5.442 5.442 0 0 1-2.098-1.374 6.225 6.225 0 0 1-1.374-2.408 11.052 11.052 0 0 1-.493-3.448v-3.127a10.904 10.904 0 0 1 .493-3.447 6.343 6.343 0 0 1 1.379-2.409 5.418 5.418 0 0 1 2.083-1.374 8.289 8.289 0 0 1 5.314 0c.791.289 1.503.76 2.079 1.374a6.329 6.329 0 0 1 1.364 2.389c.346 1.116.512 2.28.492 3.447l.005 3.162zm-2.236 0v-3.143a9.85 9.85 0 0 0-.305-2.595 4.625 4.625 0 0 0-.852-1.764 3.369 3.369 0 0 0-1.345-.985 4.925 4.925 0 0 0-1.846-.32c-2.903 0-4.354 1.885-4.354 5.654v3.142a8.575 8.575 0 0 0 .522 3.246 3.67 3.67 0 0 0 1.477 1.837c.716.4 1.526.597 2.345.571 2.892.007 4.339-1.874 4.339-5.644h.02zm14.702 6.673a.61.61 0 0 1-.104.394.724.724 0 0 1-.409.177c-1.48.274-2.981.41-4.486.404a5.57 5.57 0 0 1-2.955-.734 4.383 4.383 0 0 1-1.773-2.103 8.16 8.16 0 0 1-.562-3.182v-1.748a9.028 9.028 0 0 1 .325-2.566c.191-.682.527-1.316.985-1.857a4.206 4.206 0 0 1 1.645-1.157 6.319 6.319 0 0 1 2.34-.399c.957-.005 1.914.08 2.856.251v-4.53a.458.458 0 0 1 .123-.35.443.443 0 0 1 .335-.138h1.241a.414.414 0 0 1 .32.133c.08.093.122.212.119.334v17.07zm-2.143-1.05v-9.672a9.584 9.584 0 0 0-1.275-.138c-.453-.02-.98-.03-1.581-.03-1.143 0-1.964.342-2.463 1.025-.499.683-.74 1.706-.724 3.068v1.749c0 1.395.24 2.436.72 3.122.479.686 1.3 1.03 2.462 1.03.7.003 1.653-.047 2.861-.148v-.005zm9.998.158a8.121 8.121 0 0 0 1.59-.152 11.663 11.663 0 0 0 1.523-.41c.495-.17.894-.314 1.196-.433a.414.414 0 0 1 .41 0 .37.37 0 0 1 .147.325v.985c0 .168-.113.316-.335.439a9.574 9.574 0 0 1-4.536 1.118 6.856 6.856 0 0 1-2.768-.542 4.29 4.29 0 0 1-2.004-1.847 6.816 6.816 0 0 1-.764-3.447v-2.202c0-1.763.475-3.154 1.424-4.171.949-1.018 2.28-1.527 3.994-1.527a5.787 5.787 0 0 1 2.955.694 4.388 4.388 0 0 1 1.817 1.97c.418.956.618 1.992.586 3.034v1.32c0 .358-.154.537-.463.537H53.66v.345c0 1.411.276 2.428.827 3.048.552.62 1.407.926 2.566.916zm3.073-5.95v-.216a5.876 5.876 0 0 0-.35-2.201 2.364 2.364 0 0 0-1.058-1.246 3.723 3.723 0 0 0-1.783-.38c-2.184 0-3.275 1.274-3.275 3.822v.227l6.466-.005zm14.79-.832v8.004a.453.453 0 0 1-.152.344.493.493 0 0 1-.335.143H73.26a.493.493 0 0 1-.492-.492v-7.999a5.216 5.216 0 0 0-.29-1.925 1.886 1.886 0 0 0-.917-1.025 3.674 3.674 0 0 0-1.625-.31 12.125 12.125 0 0 0-3.142.438v10.826c0 .272-.22.492-.493.492H65.11a.443.443 0 0 1-.32-.143.493.493 0 0 1-.142-.344V12.382a.557.557 0 0 1 .438-.582c1.64-.46 3.33-.716 5.033-.763a6.895 6.895 0 0 1 2.315.34 3.305 3.305 0 0 1 1.478.985c.368.458.629.994.763 1.566.17.721.25 1.46.241 2.201zm6.427 6.832c1.77 0 2.655-.62 2.655-1.857.01-.366-.127-.72-.38-.985a5.703 5.703 0 0 0-1.437-.95l-2.463-1.262a5.418 5.418 0 0 1-1.852-1.477 3.354 3.354 0 0 1-.635-2.059c-.034-.715.2-1.417.655-1.97a3.512 3.512 0 0 1 1.684-1.073 8.373 8.373 0 0 1 2.31-.296 9.215 9.215 0 0 1 1.97.217c.504.095.991.261 1.448.492.093.049.18.107.261.173a.345.345 0 0 1 .07.256v.985a.355.355 0 0 1-.149.315.443.443 0 0 1-.408 0 9.244 9.244 0 0 0-1.576-.433 8.648 8.648 0 0 0-1.61-.173 4.831 4.831 0 0 0-1.828.286c-.463.199-.74.677-.685 1.177-.008.389.133.766.394 1.054.375.37.81.673 1.286.896l2.418 1.236c.58.281 1.12.637 1.606 1.06.35.312.63.696.817 1.127.169.416.252.861.246 1.31a3.472 3.472 0 0 1-.62 2.098 3.635 3.635 0 0 1-1.7 1.261 6.944 6.944 0 0 1-2.462.409c-.7 0-1.398-.083-2.078-.246a7.388 7.388 0 0 1-1.576-.527c-.23-.119-.345-.265-.345-.439v-.985a.364.364 0 0 1 .153-.32.404.404 0 0 1 .404 0 9.436 9.436 0 0 0 3.427.7zm12.284-.05a8.121 8.121 0 0 0 1.59-.152 11.663 11.663 0 0 0 1.522-.41c.496-.17.895-.314 1.197-.433a.414.414 0 0 1 .409 0 .37.37 0 0 1 .147.325v.985c0 .168-.113.316-.334.439a9.574 9.574 0 0 1-4.536 1.118 6.856 6.856 0 0 1-2.768-.542 4.29 4.29 0 0 1-2.005-1.847 6.816 6.816 0 0 1-.763-3.447v-2.202c0-1.763.474-3.154 1.423-4.171.95-1.018 2.28-1.527 3.994-1.527a5.787 5.787 0 0 1 2.955.694 4.388 4.388 0 0 1 1.818 1.97c.417.956.618 1.992.586 3.034v1.32c0 .358-.154.537-.463.537h-8.166v.345c0 1.411.276 2.428.828 3.048.551.62 1.406.926 2.566.916zm3.073-5.95v-.216a5.876 5.876 0 0 0-.35-2.201 2.364 2.364 0 0 0-1.059-1.246 3.723 3.723 0 0 0-1.783-.38c-2.183 0-3.275 1.274-3.275 3.822v.227l6.467-.005zm23.123 7.334c0 .214-.104.32-.31.32h-1.562a.946.946 0 0 1-.374-.054.832.832 0 0 1-.266-.266l-4.354-7.26h-.63a90.68 90.68 0 0 1-2.69-.068v7.166a.493.493 0 0 1-.117.35.404.404 0 0 1-.32.137h-1.31a.409.409 0 0 1-.316-.138.493.493 0 0 1-.123-.35V7.059c0-.329.194-.508.581-.537a28.83 28.83 0 0 1 1.305-.104 38.05 38.05 0 0 1 1.69-.069h1.305c1.2-.026 2.398.14 3.546.493a4.763 4.763 0 0 1 2.398 1.684 4.98 4.98 0 0 1 .877 3.049v.177a4.836 4.836 0 0 1-1.04 3.201 5.28 5.28 0 0 1-2.777 1.714l4.433 7.417a.384.384 0 0 1 .054.212zm-2.867-12.544v-.177a3.211 3.211 0 0 0-.492-1.896 2.797 2.797 0 0 0-1.522-1.03 9.062 9.062 0 0 0-2.595-.31c-1.406 0-2.302.023-2.69.069v6.673c1.429.033 2.325.05 2.69.05a9.116 9.116 0 0 0 2.575-.306 2.778 2.778 0 0 0 1.508-1.034c.385-.61.569-1.324.526-2.044v.005zm9.747 11.16a8.121 8.121 0 0 0 1.591-.152 11.663 11.663 0 0 0 1.522-.41c.496-.17.895-.314 1.197-.433a.414.414 0 0 1 .408 0 .37.37 0 0 1 .148.325v.985c0 .168-.113.316-.335.439a9.574 9.574 0 0 1-4.536 1.118 6.856 6.856 0 0 1-2.768-.542 4.29 4.29 0 0 1-2.004-1.847 6.816 6.816 0 0 1-.764-3.447v-2.202c0-1.763.475-3.154 1.424-4.171.949-1.018 2.28-1.527 3.994-1.527a5.787 5.787 0 0 1 2.955.694 4.388 4.388 0 0 1 1.817 1.97c.418.956.618 1.992.587 3.034v1.32c0 .358-.155.537-.463.537h-8.166v.345c0 1.411.276 2.428.827 3.048.552.62 1.407.926 2.566.916zm3.073-5.95v-.216a5.876 5.876 0 0 0-.35-2.201 2.364 2.364 0 0 0-1.058-1.246 3.723 3.723 0 0 0-1.783-.38c-2.183 0-3.275 1.274-3.275 3.822v.227l6.466-.005zm14.79-.832v8.004a.453.453 0 0 1-.152.344.493.493 0 0 1-.335.143h-1.167a.493.493 0 0 1-.493-.492v-7.999a5.216 5.216 0 0 0-.29-1.925 1.886 1.886 0 0 0-.917-1.025 3.674 3.674 0 0 0-1.625-.31 12.125 12.125 0 0 0-3.142.438v10.826c0 .272-.22.492-.493.492h-1.191a.443.443 0 0 1-.32-.143.493.493 0 0 1-.143-.344V12.382a.557.557 0 0 1 .438-.582c1.64-.46 3.33-.716 5.033-.763a6.895 6.895 0 0 1 2.315.34 3.305 3.305 0 0 1 1.478.985c.368.458.629.994.763 1.566.17.721.25 1.46.241 2.201zm13.155 2.714c0 1.826-.466 3.272-1.399 4.34-.932 1.066-2.275 1.6-4.028 1.6-1.747 0-3.087-.534-4.02-1.6-.932-1.068-1.398-2.514-1.398-4.34v-1.857c0-1.832.466-3.281 1.399-4.348.932-1.067 2.272-1.601 4.019-1.601 1.753 0 3.096.534 4.028 1.6.933 1.068 1.4 2.517 1.4 4.35v1.856zm-2.142 0v-1.857a6.082 6.082 0 0 0-.35-2.181 2.861 2.861 0 0 0-1.083-1.4 3.27 3.27 0 0 0-1.852-.492 2.896 2.896 0 0 0-2.463 1.064 4.88 4.88 0 0 0-.807 3.005v1.856c0 2.712 1.091 4.068 3.275 4.068a2.92 2.92 0 0 0 2.462-1.059c.596-.884.883-1.94.818-3.004zm14.47-7.225c.009.059.009.119 0 .177L166.763 23.4a1.67 1.67 0 0 1-.788 1.074c-.444.223-.937.33-1.434.31a2.876 2.876 0 0 1-1.403-.306 1.743 1.743 0 0 1-.783-1.078l-3.276-11.579a.571.571 0 0 1 0-.177.414.414 0 0 1 .104-.296.364.364 0 0 1 .28-.108h1.345c.214 0 .368.154.463.463l2.734 10.594c.045.205.125.402.236.58a.335.335 0 0 0 .276.134.36.36 0 0 0 .285-.143c.113-.174.19-.368.227-.571l2.807-10.619c.095-.308.25-.463.463-.463h1.335a.38.38 0 0 1 .295.109c.076.08.118.185.119.295zm11.14 12.067a.493.493 0 0 1-.37.536c-.63.182-1.271.322-1.92.419-.728.1-1.462.148-2.197.143-1.897 0-3.26-.32-4.087-.96-.828-.64-1.235-1.662-1.222-3.064v-.217a3.97 3.97 0 0 1 .576-2.236 3.413 3.413 0 0 1 1.867-1.29 11.328 11.328 0 0 1 3.423-.424h1.807v-.985c0-1.014-.193-1.718-.58-2.112-.388-.394-1.063-.591-2.025-.591-.635-.009-1.27.04-1.896.147-.617.122-1.227.274-1.827.458a.493.493 0 0 1-.41 0 .32.32 0 0 1-.162-.295v-.956a.493.493 0 0 1 .345-.438 10.279 10.279 0 0 1 1.66-.517 9.668 9.668 0 0 1 2.29-.266c3.165 0 4.748 1.527 4.748 4.58l-.02 8.068zm-2.142-.798v-4.733h-1.808c-.618-.012-1.236.03-1.847.123a2.788 2.788 0 0 0-1.103.409 1.576 1.576 0 0 0-.581.719 3.054 3.054 0 0 0-.172 1.113v.216c-.021.473.07.944.265 1.375.214.374.569.648.985.758a6.21 6.21 0 0 0 1.936.236c.328 0 .642-.01.94-.03.3-.019.572-.045.818-.078.19-.023.38-.058.567-.103v-.005zm11.652 1.359c0 .24-.146.38-.438.419a10.87 10.87 0 0 1-1.581.118c-1.192 0-2.04-.225-2.546-.675-.506-.45-.76-1.313-.764-2.59v-8.506L183 12.75c-.308-.023-.462-.17-.462-.438v-.67c0-.286.154-.429.462-.429h2.37V8.821a.463.463 0 0 1 .428-.493l1.275-.192h.08a.34.34 0 0 1 .265.113c.07.08.107.185.104.291v2.664h2.63c.272 0 .492.22.492.493v.822a.453.453 0 0 1-.153.345.493.493 0 0 1-.334.143h-2.63v8.515c-.055.438.042.882.275 1.256.297.223.667.323 1.035.281h1.369c.328 0 .492.115.492.345v.842zm4.236-15.676a.463.463 0 0 1-.143.35.493.493 0 0 1-.345.137h-1.236a.493.493 0 0 1-.492-.492V6.629c-.001-.128.048-.252.137-.345a.463.463 0 0 1 .35-.143h1.236a.453.453 0 0 1 .493.493V8.57zm-.044 15.563a.463.463 0 0 1-.143.35.493.493 0 0 1-.345.137h-1.167a.493.493 0 0 1-.335-.143.453.453 0 0 1-.153-.344V11.702c0-.272.22-.493.493-.493h1.167a.453.453 0 0 1 .492.493l-.01 12.43zm13.4-5.29c0 1.826-.466 3.272-1.398 4.34-.933 1.066-2.275 1.6-4.029 1.6-1.747 0-3.086-.534-4.019-1.6-.932-1.068-1.398-2.514-1.398-4.34v-1.857c0-1.832.466-3.281 1.398-4.348.933-1.067 2.272-1.601 4.02-1.601 1.753 0 3.095.534 4.028 1.6.932 1.068 1.399 2.517 1.399 4.35v1.856zm-2.142 0v-1.857a6.082 6.082 0 0 0-.35-2.181 2.861 2.861 0 0 0-1.083-1.4 3.27 3.27 0 0 0-1.852-.492 2.896 2.896 0 0 0-2.462 1.064 4.88 4.88 0 0 0-.808 3.005v1.856c0 2.712 1.092 4.068 3.275 4.068a2.92 2.92 0 0 0 2.463-1.059c.595-.884.883-1.94.817-3.004zm14.721-2.714v8.004a.453.453 0 0 1-.152.344.493.493 0 0 1-.335.143h-1.168a.493.493 0 0 1-.492-.492v-7.999a5.216 5.216 0 0 0-.29-1.925 1.886 1.886 0 0 0-.917-1.025 3.674 3.674 0 0 0-1.625-.31c-1.057.006-2.108.15-3.127.429v10.835c0 .272-.22.492-.493.492h-1.192a.443.443 0 0 1-.32-.143.493.493 0 0 1-.143-.344V12.382a.557.557 0 0 1 .439-.582c1.64-.46 3.33-.716 5.033-.763a6.895 6.895 0 0 1 2.315.34 3.305 3.305 0 0 1 1.477.985c.368.457.629.99.764 1.561a9.14 9.14 0 0 1 .226 2.206zm8.432.065a.108.108 0 0 1-.035.083.123.123 0 0 1-.083.03h-.71a.118.118 0 0 1-.078-.035.148.148 0 0 1-.05-.078l-.315-1.266h-1.527l-.305 1.26a.153.153 0 0 1-.05.08.118.118 0 0 1-.078.034h-.704c-.03 0-.06-.01-.084-.03a.103.103 0 0 1-.034-.083l1.088-4.167a.985.985 0 0 1 1.847 0l1.088 4.167c.01-.002.02 0 .03.005zm-1.433-2.02l-.493-1.97a.197.197 0 0 0-.04-.084.098.098 0 0 0-.068 0 .094.094 0 0 0-.07 0 .202.202 0 0 0-.039.084l-.492 1.97h1.202zm-.823 9.742a.985.985 0 0 0 .606-.148.552.552 0 0 0 .177-.453.493.493 0 0 0-.113-.325 1.773 1.773 0 0 0-.438-.325l-.852-.502c-.181-.1-.347-.224-.493-.37a1.084 1.084 0 0 1-.241-.399 1.433 1.433 0 0 1-.07-.448c-.018-.35.124-.691.385-.926a1.842 1.842 0 0 1 1.231-.34c.22 0 .438.026.65.08.171.038.337.097.493.177.04.02.076.047.108.078a.138.138 0 0 1 .035.099v.448c0 .108-.054.143-.168.099a3.34 3.34 0 0 0-.517-.133 3.191 3.191 0 0 0-.596-.064c-.466 0-.7.154-.7.462a.374.374 0 0 0 .11.271c.132.118.277.22.433.306l.797.492c.201.114.385.255.547.419.12.122.215.268.276.428.054.159.08.325.079.493.001.237-.056.47-.168.68-.13.216-.322.388-.551.492-.309.142-.646.21-.985.197a2.778 2.778 0 0 1-.749-.094 2.192 2.192 0 0 1-.492-.172.576.576 0 0 1-.124-.084.133.133 0 0 1-.03-.093v-.453c0-.104.055-.133.168-.099.384.131.787.2 1.192.207z" fill="#1B1C20"/></g></symbol><symbol id="social-facebook" viewBox="0 0 20 20"><path fill="#AAA" fill-rule="evenodd" d="M18.896 0H1.104C.494 0 0 .494 0 1.104v17.792C0 19.506.494 20 1.104 20h9.579v-7.745H8.076V9.237h2.607V7.01c0-2.584 1.577-3.99 3.882-3.99 1.104 0 2.052.082 2.329.119v2.7h-1.598c-1.254 0-1.496.596-1.496 1.47v1.927h2.989l-.39 3.018h-2.6V20h5.097c.61 0 1.104-.494 1.104-1.104V1.104C20 .494 19.506 0 18.896 0"/></symbol><symbol id="social-instagram" viewBox="0 0 20 20"><g fill="#AAA" fill-rule="evenodd"><path d="M9.997.006c-2.715 0-3.056.012-4.122.06-1.064.049-1.79.218-2.426.465a4.9 4.9 0 0 0-1.771 1.153 4.9 4.9 0 0 0-1.153 1.77C.278 4.092.109 4.818.06 5.882.012 6.948 0 7.288 0 10.003s.012 3.056.06 4.122c.049 1.064.218 1.79.465 2.426a4.9 4.9 0 0 0 1.153 1.771 4.9 4.9 0 0 0 1.77 1.153c.636.247 1.363.416 2.427.465 1.066.048 1.407.06 4.122.06s3.055-.012 4.122-.06c1.064-.049 1.79-.218 2.426-.465a4.9 4.9 0 0 0 1.77-1.153 4.9 4.9 0 0 0 1.154-1.77c.247-.636.416-1.363.465-2.427.048-1.066.06-1.407.06-4.122s-.012-3.055-.06-4.122c-.049-1.064-.218-1.79-.465-2.426a4.9 4.9 0 0 0-1.153-1.77A4.9 4.9 0 0 0 16.546.53c-.637-.247-1.363-.416-2.427-.465-1.067-.048-1.407-.06-4.122-.06zm0 1.802c2.67 0 2.985.01 4.04.058.974.044 1.503.207 1.856.344.466.181.8.398 1.15.748.349.35.566.683.747 1.15.137.352.3.88.344 1.856.048 1.054.058 1.37.058 4.04 0 2.668-.01 2.985-.058 4.039-.044.974-.207 1.504-.344 1.856-.181.467-.398.8-.748 1.15-.35.35-.683.566-1.15.747-.352.137-.88.3-1.856.344-1.054.049-1.37.059-4.04.059-2.669 0-2.985-.01-4.039-.059-.974-.044-1.504-.207-1.856-.344a3.097 3.097 0 0 1-1.15-.748 3.097 3.097 0 0 1-.747-1.149c-.137-.352-.3-.882-.344-1.856-.049-1.054-.059-1.37-.059-4.04s.01-2.985.059-4.04c.044-.974.207-1.503.344-1.856.181-.466.398-.8.748-1.15.35-.349.682-.566 1.149-.747.352-.137.882-.3 1.856-.344 1.054-.048 1.37-.058 4.04-.058z" mask="url(#b)"/><path d="M9.997 13.335a3.332 3.332 0 1 1 0-6.664 3.332 3.332 0 0 1 0 6.664zm0-8.465a5.133 5.133 0 1 0 0 10.267 5.133 5.133 0 0 0 0-10.267zm6.536-.203a1.2 1.2 0 1 1-2.4 0 1.2 1.2 0 0 1 2.4 0"/></g></symbol></svg>