<svg xmlns="http://www.w3.org/2000/svg" viewBox="0 0 430.76 595.27"><defs><style>.cls-1{fill:#fff;}</style></defs><title>madaffald</title><g id="madaffald"><path class="cls-1" d="M417.65,568.38c7.1-5.69,16-12.43,12.22-22.89-3.21-8.91-13.35-6.37-20.88-7.11-32.3-3.18-58.34-18.15-78.79-42.72s-32.8-53.13-42.6-83.25c-9.28-28.51-7.57-57.74-8.56-87-1.15-33.78,8.39-65.07,20.8-95.48a167,167,0,0,1,28.87-47.27c21-24,46.54-39.51,77.31-46.89,4.15-1,9.21-1.36,10.12-6.36.87-4.8-3.27-7.59-6.8-10-19.77-13.66-40.94-22.33-65.72-22.32-21.45,0-40.86,6.68-59.54,15.44-41.62,19.52-83.61,21.33-126.51,5.44-13.38-4.95-26.37-11-39.88-15.5-32-10.72-62-4.43-90.09,12.84-5.29,3.25-13.1,5.85-12.82,13.12.33,8.51,9.42,7.26,15,9.19,21.67,7.54,42.08,16.48,59.66,32.29,28.42,25.55,40.93,59.5,53.29,93.73,10.92,30.25,9.37,61.87,8.53,93.24-1.42,52.44-19.29,99.22-51.89,139.93-19.49,24.35-45.46,38.69-77.1,41.48-3.56.32-7.18.23-10.67.86-12.41,2.26-14.81,7.49-7.38,17.18,9.21,12,19.92,22.35,34.43,28.06C77,599.5,115,599.15,152.59,581.6c42-19.58,84.37-18.32,126,.48,19.4,8.76,38.78,14.13,62.09,11.39C369.32,599,394.62,586.84,417.65,568.38Z"/><path class="cls-1" d="M227.43,26.27a56.81,56.81,0,0,0,.2-10.68C227.34,8.2,226.59.48,217,0c-10.15-.48-13.67,6.57-13.8,15.31-.43,29.88,3,59.34,12.31,88.52C219,77.66,223.66,52,227.43,26.27Z"/></g></svg>