<svg xmlns="http://www.w3.org/2000/svg" viewBox="0 0 283.68 608.23"><defs><style>.cls-1{fill:#fff;}</style></defs><title>metal</title><g id="metal"><path class="cls-1" d="M24.11,407.65c38.53.19,77.07.05,115.6.05v-.07c40,0,79.92.16,119.88-.06,21.74-.12,23.81-1.92,23.89-22.8q.38-95.25,0-190.49c-.07-19.13-2.24-21.41-20.69-21.46q-121-.31-241.91,0C2.41,172.9.29,175.17.22,194.3q-.36,95.25,0,190.49C.26,405.59,2.51,407.54,24.11,407.65Z"/><path class="cls-1" d="M37.61,158.8c1.42-.06,2.85,0,4.28,0,0,.18,0,.36,0,.54,9.22-.8,18.71-.46,27.61-2.59C123.47,143.81,173.21,121,218.77,89.69,238.75,76,256.55,59,269.24,38c12.15-20.17,4.52-34.64-19-37.13-22.25-2.35-44.35.55-65.73,6C152.65,15,123.15,29.43,94.13,44.72c-30.67,16.17-57,37.9-79.46,64.06C6.58,118.22-2.56,129.61,3.1,143.45,9.28,158.58,23.53,159.38,37.61,158.8Z"/><path class="cls-1" d="M262.14,608.06c18.74-.14,21.17-2.41,21.3-20.89q.49-70.53,0-141.06C283.32,426.36,281,424,261,424q-118.63-.34-237.28,0C2.56,424,.35,426.17.22,447.25q-.44,69.47,0,138.93C.33,605.92,2.52,608,22.72,608.09c39.9.25,79.81.07,119.71.06S222.24,608.36,262.14,608.06Z"/></g></svg>