<svg xmlns="http://www.w3.org/2000/svg" viewBox="0 0 8106.01 799.82"><defs><style>.cls-1{fill:#fff;}</style></defs><title>svgikoner</title><g id="restaffald"><g id="restaffald-2" data-name="restaffald"><path class="cls-1" d="M357.12,405c6,11.27,13.95,17.1,27,16.95,30.68-.38,61.36-.15,92-.06A31.93,31.93,0,0,0,497.7,414c23-19.17,46.41-37.84,69.35-57.09,5.15-4.31,12.15-7.74,12.89-15.92-31.48-8.89-36.36-12.7-54.62-42.62-2.23-3.65-4-7.58-6.52-11A74.94,74.94,0,0,0,509.18,276c-8.78-8.1-15.67-7.59-24,.83-4.19,4.24-5.93,9.64-8,14.93Q464.12,324.47,451,357.2c-1.85,4.6-3.6,9.33-6.19,13.51a10.27,10.27,0,0,1-11,5c-5-1-6.61-5.27-7-9.62-1.51-18.47-3.27-36.94-3.9-55.44-.44-12.91-1.64-25.59-4.62-38.12-3.54-14.93-6.3-16.89-17.91-8.14-18.91,14.25-40.87,15.43-62.76,17.69-6.37.66-12.87-.09-19.25.48-18.8,1.67-23.39,8.92-14.77,25C321.18,340.2,339.64,372.33,357.12,405Z" transform="translate(-174 -198.27)"/><path class="cls-1" d="M657.89,970.77c7.51-.17,17.18,3,21.27-5.68,3.4-7.19-3.58-13.27-7.19-19.15-19.52-31.74-24-67-21.72-102.86,1.14-17.77,2.64-35.51,3.42-53.41-5.88-60.16-6.83-120.58-19.31-180.36-14.11-67.59-50.71-116.36-108.84-151-16.36-9.76-33.35-15.11-52.73-14.58-31.4.85-62.83.31-94.25.32-10.05,0-20.13.3-29.47,4.37-45.83,20-82.25,50.45-107,94.56-18.92,33.76-27,71-31,108.31-5.2,48-13.58,95.89-10.34,144.66,1.61,24.17-.14,48.54.37,72.8.44,21-2,41.33-10.46,60.62-4.3,9.75-9.62,19.06-14.18,28.7-5.32,11.27-2.14,16.55,10,15.12,13.44-1.58,26.78-4.29,40-7.17a302,302,0,0,1,125.21-1c52.52,10.49,105,11.52,155.2-11.76,14.6-6.77,29.08-4.39,43.84-.28C585.82,962.77,621.08,971.62,657.89,970.77Z" transform="translate(-174 -198.27)"/></g></g><g id="metal"><path class="cls-1" d="M1577.34,719.83c38.53.19,77.06,0,115.59,0v-.06c40,0,79.93.15,119.89-.07,21.74-.11,23.8-1.92,23.89-22.8q.38-95.25,0-190.49c-.08-19.12-2.24-21.41-20.7-21.46q-120.94-.31-241.9,0c-18.48.06-20.61,2.33-20.68,21.45q-.36,95.25,0,190.49C1553.49,717.77,1555.73,719.72,1577.34,719.83Z" transform="translate(-174 -198.27)"/><path class="cls-1" d="M1590.83,471c1.43-.06,2.86,0,4.28,0,0,.18,0,.36.05.54,9.22-.8,18.72-.45,27.62-2.59C1676.7,456,1726.43,433.18,1772,401.87c20-13.72,37.79-30.66,50.48-51.74,12.14-20.17,4.51-34.64-19-37.12-22.25-2.36-44.36.54-65.74,6-31.86,8.13-61.36,22.6-90.37,37.89-30.68,16.17-57,37.9-79.47,64.06-8.09,9.44-17.23,20.83-11.57,34.67C1562.5,470.77,1576.76,471.56,1590.83,471Z" transform="translate(-174 -198.27)"/><path class="cls-1" d="M1815.37,920.24c18.74-.14,21.17-2.41,21.29-20.89q.51-70.53,0-141.06c-.12-19.75-2.46-22.1-22.43-22.16q-118.65-.33-237.29,0c-21.17,0-23.37,2.25-23.51,23.34q-.43,69.45,0,138.92c.12,19.74,2.31,21.78,22.51,21.91,39.9.25,79.81.07,119.71.07S1775.46,920.55,1815.37,920.24Z" transform="translate(-174 -198.27)"/></g><g id="pap"><path class="cls-1" d="M3296.08,359c-9.59-16.1-13.71-16-27.81-3.36-24.91,22.36-49.69,44.86-74.95,66.82-29,25.23-55.79,52.95-85.66,77.28-12.65,10.31-14.59,17.56-8.78,29.74a771.81,771.81,0,0,0,51.53,91c10.4,15.87,15.45,15.62,30.41,2.24,11.12-9.95,21.46-20.84,33.07-30.16,45.6-36.63,85-80.14,130.38-117,4.38-3.56,8.46-7.8,8.77-15.41a39.87,39.87,0,0,0-2.6-6.77C3332.43,421.9,3314.66,390.23,3296.08,359Z" transform="translate(-174 -198.27)"/><path class="cls-1" d="M2840.17,484.1c1.83,15.72,4,17.4,20.39,18.35,4.27.24,8.56.12,12.85.12,60,0,120-.82,179.9.45,20.94.45,37.25-5.9,52.18-19.41,44.93-40.69,90.16-81.05,135-121.81,7.22-6.56,15.24-12.8,20.61-24.94-19.15-3.57-36-5.36-53.15-5.35q-160.63.08-321.27.05a207.18,207.18,0,0,0-23.52.89c-18.94,2.16-21.15,4.54-23.8,23.45-4.18,29.86-1.56,59.88-2,89.83C2837.28,458.51,2838.69,471.37,2840.17,484.1Z" transform="translate(-174 -198.27)"/><path class="cls-1" d="M3260.54,571.23a71.1,71.1,0,0,0-8.36,6.65c-22.23,20.07-44.37,40.24-66.63,60.27-5.83,5.25-12.06,10-18,15.22-6.45,5.67-11.76,3.44-16.42-2.26a65.85,65.85,0,0,1-5.76-9q-19.83-34.23-39.6-68.52c-3.15-5.42-5-12-13.18-14.61-4.71,6.22-3.59,12.13-3.6,17.66q-.22,145.59-.17,291.17a80.42,80.42,0,0,0,.72,12.81c1.05,6.55,5.08,8.35,10.77,5.08a50.75,50.75,0,0,0,8.39-6.58q78.6-71,157.21-141.91c7.43-6.68,11.49-14.62,11.52-24.33.17-44.24.42-88.49-.1-132.73C3277.19,565.5,3272.34,563.45,3260.54,571.23Z" transform="translate(-174 -198.27)"/><path class="cls-1" d="M2665.92,502.29c22.83.22,45.67.1,68.5.1v.07c21.41,0,42.83.32,64.23-.09s24.57-3.62,24.77-25.37c.32-35.66.06-71.34,0-107a59.43,59.43,0,0,0-.37-8.55c-1.68-11.5-6.07-14.12-15.56-8a129.63,129.63,0,0,0-21.58,17.42c-23.71,23.74-49.4,45.23-74.66,67.22-17.74,15.45-35.11,31.31-52.45,47.21-3.48,3.19-8.63,6.66-6.15,12.4C2655.07,503.25,2661.15,502.25,2665.92,502.29Z" transform="translate(-174 -198.27)"/><path class="cls-1" d="M2789.1,660.81c63.46,0,126.92-.48,190.38.28,19.54.23,32.41-5.48,39.5-24.81,10.77-29.37,23.41-58,34.79-87.2,10.81-27.67,9.38-29.54-20.89-29.57q-172.2-.15-344.4-.13c-15,0-29.95.1-44.92.51-10.61.28-19.45,3.77-23.86,14.66-14.71,36.32-29.84,72.49-44.23,108.94-4.83,12.24-2.47,15.29,10.43,16.64a183.93,183.93,0,0,0,19.23.51q92,0,184,0Z" transform="translate(-174 -198.27)"/><path class="cls-1" d="M2849,900.91c64.94,0,129.88.13,194.82-.07,25.46-.08,28.32-3,28.35-28.44q.14-138.06-.16-276.13c0-5.67-.14-11.49-1.4-17-1.42-6.16-7.26-7.11-11-1.95-2.47,3.41-4.11,7.48-5.77,11.4-8.9,21-18,41.91-26.44,63.06-7.66,19.08-10.51,21.41-31.58,21.88-6.42.15-12.85,0-19.27,0q-153.09,0-306.16.07c-6.42,0-12.87-.2-19.26.27-16.1,1.2-20.23,4.69-20.34,21.09q-.64,93.11-.12,186.22c.09,15.46,3.66,18.29,19.24,19.36,7.1.49,14.26.29,21.4.3H2849Z" transform="translate(-174 -198.27)"/></g><g id="madaffald"><path class="cls-1" d="M4433.39,887c7.1-5.69,16-12.43,12.22-22.89-3.2-8.92-13.35-6.37-20.88-7.11-32.3-3.18-58.34-18.16-78.79-42.72s-32.8-53.13-42.6-83.25c-9.27-28.51-7.57-57.74-8.56-87-1.14-33.78,8.4-65.07,20.8-95.48a167.26,167.26,0,0,1,28.87-47.27c21-24,46.54-39.51,77.31-46.89,4.16-1,9.21-1.37,10.12-6.36.87-4.8-3.27-7.59-6.8-10-19.77-13.66-40.94-22.34-65.71-22.32-21.46,0-40.87,6.68-59.54,15.44-41.63,19.52-83.62,21.33-126.52,5.44-13.37-4.95-26.37-11-39.88-15.51-32-10.71-62-4.42-90.09,12.85-5.29,3.25-13.09,5.85-12.82,13.11.33,8.52,9.42,7.27,15,9.2,21.67,7.54,42.08,16.48,59.66,32.28,28.42,25.55,40.93,59.51,53.29,93.74,10.93,30.24,9.37,61.87,8.53,93.24-1.41,52.44-19.29,99.22-51.89,139.93-19.49,24.35-45.46,38.69-77.1,41.48-3.56.31-7.18.23-10.67.86-12.41,2.26-14.8,7.49-7.38,17.18,9.21,12,19.92,22.35,34.43,28,38.41,15.1,76.33,14.75,114-2.8,42-19.59,84.37-18.32,126,.48,19.4,8.76,38.78,14.13,62.09,11.39C4385.06,917.7,4410.37,905.49,4433.39,887Z" transform="translate(-174 -198.27)"/><path class="cls-1" d="M4243.18,344.93a58.56,58.56,0,0,0,.2-10.68c-.3-7.39-1-15.11-10.68-15.57-10.15-.48-13.67,6.57-13.79,15.31-.44,29.88,3,59.33,12.31,88.51C4234.74,396.32,4239.4,370.69,4243.18,344.93Z" transform="translate(-174 -198.27)"/></g><g id="glass"><path class="cls-1" d="M5610.38,553.16c-7.75-34.47-24.19-65.29-39.7-96.55a292.53,292.53,0,0,1-25.31-74.56c-9.29-47.85-11.45-96.19-11.34-144.74,0-7.14.28-14.3-.28-21.4-1.05-13.25-3.84-16.31-16.85-17.15-10.67-.7-21.41-.54-32.11-.23-20.19.58-23.51,3.74-23.78,24.15-.37,28.54.79,57.12-.45,85.61-1.41,32.71-4,65.27-13.61,97.1-8.72,28.93-21.62,55.78-35.16,82.49-22.59,44.52-35.06,91.92-36.42,141.57-1.47,54.19-.33,108.46-.33,162.69h-.26q0,82.43,0,164.84c0,6.41.08,12.85.69,19.23.77,8.17,5.58,13,13.8,13.75,5.67.53,11.39.68,17.1.67,47.68-.1,95.34-2.31,143.07-.33,19.12.79,38.39-2.22,57.61-3.27,10.19-.56,16-5.24,16.28-15.76.13-4.28.34-8.56.34-12.84q-.12-163.77-.21-327.53C5623.5,604.17,5616.15,578.84,5610.38,553.16Zm-29,407.4c-4.76,3.8-7.44-1.58-9.62-4.88-8.06-12.19-19.13-20.46-31.66-27.89-27.14-16.1-75-11.66-101.23,14.25-6.08,6-11.83,12.34-18,18.22-2.85,2.69-5.58,6.93-12.26,3.22,18.18-31.27,43.1-51.15,80.2-54.2,28.23-2.32,53.54,3.66,75.45,22.43a82.15,82.15,0,0,1,15.44,17.53C5582,952.75,5585.55,957.23,5581.38,960.56Z" transform="translate(-174 -198.27)"/></g><g id="plast"><path class="cls-1" d="M7950.71,351h157.58c7,0,12.71-5.38,12.71-12V302c0-6.64-5.69-12-12.71-12H7950.71c-7,0-12.71,5.38-12.71,12v37C7938,345.62,7943.69,351,7950.71,351Z" transform="translate(-174 -198.27)"/><path class="cls-1" d="M8235,474c-47-27-78-44-78-44s-40.81-16.33-48.69-63H7948.82L7828,469s-37,21-37,87V919s0,79,58,79h360s71,5,71-62V565S8282,501,8235,474Zm-2,235.87A22.13,22.13,0,0,1,8210.87,732h-45.74A22.13,22.13,0,0,1,8143,709.87V524.13A22.13,22.13,0,0,1,8165.13,502H8180c21,0,53,22,53,62Z" transform="translate(-174 -198.27)"/></g><g id="papir"><path class="cls-1" d="M6532.12,950c2.85.18,5.71.12,8.57.12q219.6,0,439.22,0c27.15,0,29.24-2.31,29.55-29.23,0-2.86,0-5.72,0-8.57q0-159.59,0-319.18,0-160.65,0-321.31c0-6.42-.06-12.85-.42-19.26-.48-8.49-5.31-12.92-13.69-13.4-5-.29-10-.41-15-.41q-90,0-180,.06c-4.28,0-8.6-.15-12.84.26-13.24,1.29-16.24,4.14-17.45,16.85-.47,5-.16,10-.16,15q0,92.11,0,184.22c0,5,.1,10,0,15-.58,21.74-3.79,25.06-24.75,25.64-3.57.09-7.14-.05-10.71-.05q-98.57,0-197.12,0c-22.53,0-24.44,2.07-24.91,24.24,0,2.14,0,4.28,0,6.42q0,197.08-.08,394.15c0,2.86-.08,5.72,0,8.57C6513.15,946.54,6515.44,949,6532.12,950Z" transform="translate(-174 -198.27)"/><path class="cls-1" d="M6541.59,477.6c5.6.82,11.38.69,17.08.7q40.66.09,81.33,0v-.15c30,0,59.94.34,89.89-.12,18.25-.28,22-3.67,22.18-21,.45-61.34.33-122.69.32-184,0-4.83.81-10.88-5.25-12.71-4.54-1.38-7.71,2.75-10.82,5.63-2.09,1.94-4.08,4-6.1,6q-92.36,92.28-184.69,184.55a106.11,106.11,0,0,0-8.83,9.31C6531.62,472.29,6534,476.49,6541.59,477.6Z" transform="translate(-174 -198.27)"/></g></svg>