<svg xmlns="http://www.w3.org/2000/svg" viewBox="0 0 779.88 569.57"><defs><style>.cls-1{fill:#fff;}</style></defs><title>pap</title><g id="pap"><path class="cls-1" d="M722.93,27.53c-9.59-16.1-13.71-16-27.82-3.36C670.2,46.53,645.42,69,620.16,91c-29,25.23-55.78,53-85.65,77.28-12.65,10.31-14.6,17.56-8.79,29.74a774.66,774.66,0,0,0,51.53,91c10.41,15.87,15.45,15.63,30.41,2.24,11.12-9.95,21.47-20.83,33.08-30.16,45.6-36.63,85-80.14,130.38-117,4.38-3.56,8.45-7.8,8.76-15.41a38.87,38.87,0,0,0-2.59-6.77C759.28,90.39,741.51,58.72,722.93,27.53Z"/><path class="cls-1" d="M267,152.59c1.83,15.72,4.05,17.4,20.39,18.35,4.27.24,8.56.12,12.84.12,60,0,120-.82,179.91.45,20.93.45,37.25-5.89,52.17-19.41,44.94-40.69,90.17-81,135-121.81C674.6,23.74,682.62,17.5,688,5.35,668.83,1.78,652,0,634.84,0Q474.21.08,313.57.05a207.1,207.1,0,0,0-23.52.89c-18.94,2.16-21.15,4.54-23.8,23.45-4.18,29.86-1.56,59.88-1.95,89.83C264.13,127,265.54,139.86,267,152.59Z"/><path class="cls-1" d="M687.39,239.72a70.39,70.39,0,0,0-8.37,6.65c-22.23,20.07-44.37,40.24-66.63,60.27-5.83,5.25-12.06,10-17.95,15.22-6.45,5.68-11.76,3.44-16.42-2.25a66.47,66.47,0,0,1-5.76-9q-19.83-34.25-39.6-68.53c-3.15-5.42-5-12-13.18-14.6-4.71,6.21-3.59,12.12-3.6,17.65q-.23,145.59-.18,291.18a81.55,81.55,0,0,0,.72,12.8c1.06,6.55,5.09,8.35,10.78,5.09a50.33,50.33,0,0,0,8.38-6.59q78.6-71,157.21-141.91c7.44-6.68,11.5-14.61,11.53-24.33.16-44.24.42-88.49-.11-132.73C704,234,699.19,231.94,687.39,239.72Z"/><path class="cls-1" d="M92.77,170.78c22.83.22,45.67.1,68.5.1V171c21.41,0,42.82.32,64.22-.09s24.58-3.62,24.78-25.36c.32-35.67,0-71.35,0-107a59.23,59.23,0,0,0-.37-8.54c-1.68-11.51-6.07-14.13-15.57-8a130,130,0,0,0-21.58,17.43c-23.71,23.73-49.39,45.22-74.65,67.21C120.37,122,103,137.85,85.66,153.75c-3.48,3.19-8.64,6.66-6.15,12.41C81.92,171.74,88,170.74,92.77,170.78Z"/><path class="cls-1" d="M215.94,329.3c63.46,0,126.93-.47,190.38.28,19.55.24,32.41-5.47,39.51-24.81,10.77-29.37,23.41-58,34.79-87.2C491.42,189.9,490,188,459.72,188q-172.2-.15-344.4-.13c-15,0-29.94.1-44.91.51C59.79,188.66,51,192.15,46.54,203,31.83,239.37,16.71,275.53,2.32,312c-4.83,12.24-2.48,15.29,10.42,16.65a184.05,184.05,0,0,0,19.24.5q92,0,184,0Z"/><path class="cls-1" d="M275.81,569.4c64.95,0,129.89.13,194.83-.07,25.46-.08,28.32-3,28.35-28.44q.12-138.06-.16-276.12c0-5.68-.14-11.5-1.4-17-1.42-6.16-7.26-7.11-11-1.95-2.47,3.41-4.11,7.48-5.78,11.4-8.9,21-17.95,41.91-26.44,63.06-7.65,19.08-10.5,21.42-31.58,21.88-6.42.15-12.84.05-19.27.05q-153.08,0-306.15.07c-6.42,0-12.87-.2-19.26.28-16.11,1.19-20.23,4.68-20.34,21.08q-.65,93.1-.12,186.22c.08,15.46,3.66,18.29,19.23,19.36,7.11.49,14.27.3,21.4.3q88.86,0,177.7,0Z"/></g></svg>