<svg xmlns="http://www.w3.org/2000/svg" viewBox="0 0 497.21 711.39"><defs><style>.cls-1{fill:#fff;}</style></defs><title>papir</title><g id="papir"><path class="cls-1" d="M19.83,711.24c2.85.17,5.71.12,8.57.12q219.62,0,439.22,0c27.16,0,29.25-2.31,29.56-29.24,0-2.85,0-5.71,0-8.57q0-159.59,0-319.17,0-160.65,0-321.31c0-6.42-.06-12.86-.42-19.27C496.29,5.32,491.46.89,483.08.41c-5-.29-10-.41-15-.41q-90,0-180,.06c-4.28,0-8.59-.15-12.84.26C262,1.61,259,4.46,257.83,17.17c-.47,5-.16,10-.16,15q0,92.1,0,184.22c0,5,.1,10,0,15-.58,21.74-3.79,25.05-24.75,25.63-3.57.1-7.14,0-10.71,0q-98.56,0-197.11,0C2.49,257,.58,259,.12,281.21c0,2.14,0,4.28,0,6.42Q.06,484.7,0,681.78c0,2.86-.09,5.72,0,8.57C.86,707.79,3.16,710.22,19.83,711.24Z"/><path class="cls-1" d="M29.3,238.85c5.61.82,11.38.69,17.08.7q40.66.09,81.33,0v-.15c30,0,59.94.33,89.9-.12,18.24-.28,22-3.67,22.18-21,.45-61.34.33-122.69.31-184,0-4.83.81-10.88-5.25-12.72-4.54-1.37-7.7,2.76-10.81,5.64-2.1,1.94-4.09,4-6.11,6Q125.58,125.43,33.24,217.71A104.72,104.72,0,0,0,24.41,227C19.33,233.54,21.75,237.74,29.3,238.85Z"/></g></svg>