<svg xmlns="http://www.w3.org/2000/svg" viewBox="0 0 489.01 708.08"><defs><style>.cls-1{fill:#fff;}</style></defs><title>plast</title><g id="plast"><path class="cls-1" d="M159.71,61H317.29c7,0,12.71-5.38,12.71-12V12c0-6.64-5.69-12-12.71-12H159.71C152.69,0,147,5.38,147,12V49C147,55.62,152.69,61,159.71,61Z"/><path class="cls-1" d="M444,184c-47-27-78-44-78-44s-40.81-16.33-48.69-63H157.82L37,179S0,200,0,266V629s0,79,58,79H418s71,5,71-62V275S491,211,444,184Zm-2,235.87A22.13,22.13,0,0,1,419.87,442H374.13A22.13,22.13,0,0,1,352,419.87V234.13A22.13,22.13,0,0,1,374.13,212H389c21,0,53,22,53,62Z"/></g></svg>