<svg id="restaffald" xmlns="http://www.w3.org/2000/svg" viewBox="0 0 506.07 714.16"><defs><style>.cls-1{fill:#fff;}</style></defs><title>restaffald</title><g id="restaffald-2" data-name="restaffald"><path class="cls-1" d="M183.12,145.76c6,11.27,13.95,17.1,27,16.94,30.68-.37,61.36-.15,92,0a32,32,0,0,0,21.53-7.82c23-19.17,46.41-37.85,69.35-57.09,5.15-4.31,12.15-7.75,12.89-15.93-31.48-8.88-36.36-12.7-54.62-42.61-2.23-3.65-4-7.59-6.52-11a75.35,75.35,0,0,0-9.62-11.42c-8.78-8.1-15.67-7.6-24,.82-4.19,4.24-5.93,9.65-8,14.94Q290.12,65.26,277,98c-1.85,4.6-3.6,9.33-6.19,13.51a10.28,10.28,0,0,1-11,5.05c-5-1-6.61-5.27-7-9.63C251.36,88.45,249.6,70,249,51.47a192.11,192.11,0,0,0-4.62-38.12c-3.54-14.92-6.3-16.89-17.91-8.13-18.91,14.25-40.87,15.43-62.76,17.69-6.37.65-12.87-.09-19.25.47-18.8,1.68-23.39,8.92-14.77,25C147.18,81,165.64,113.11,183.12,145.76Z"/><path class="cls-1" d="M483.89,711.56c7.51-.18,17.18,3,21.27-5.69,3.4-7.18-3.58-13.27-7.19-19.15-19.52-31.73-24-67-21.72-102.85,1.14-17.78,2.64-35.51,3.42-53.42-5.88-60.15-6.83-120.57-19.31-180.36-14.11-67.58-50.71-116.36-108.84-151-16.36-9.76-33.35-15.11-52.73-14.58-31.4.85-62.83.3-94.25.31-10,0-20.13.31-29.47,4.38-45.83,20-82.25,50.44-107,94.55-18.92,33.77-26.95,71-31,108.32-5.2,48-13.58,95.89-10.34,144.66,1.61,24.16-.14,48.53.37,72.8.44,21-2,41.33-10.46,60.61-4.3,9.76-9.62,19.06-14.18,28.71-5.32,11.26-2.14,16.54,10,15.11,13.44-1.58,26.78-4.28,40-7.17a302.22,302.22,0,0,1,125.21-.94c52.52,10.48,105,11.51,155.2-11.77,14.6-6.76,29.08-4.39,43.84-.27C411.82,703.55,447.08,712.41,483.89,711.56Z"/></g></svg>